<svg preserveAspectRatio="none" width="100%" height="100%" overflow="visible" style="display: block;" viewBox="0 0 15 18" fill="none" xmlns="http://www.w3.org/2000/svg">
<path id="Icon" d="M11.9792 6.46532C11.5189 6.46532 11.1458 6.83842 11.1458 7.29866C11.1458 7.75889 11.5189 8.13199 11.9792 8.13199V7.29866V6.46532ZM3.02083 8.13201C3.48107 8.13201 3.85417 7.75891 3.85417 7.29867C3.85417 6.83844 3.48107 6.46534 3.02083 6.46534V7.29867V8.13201ZM6.66667 10.7924C6.66667 11.2526 7.03976 11.6257 7.5 11.6257C7.96024 11.6257 8.33333 11.2526 8.33333 10.7924H7.5H6.66667ZM3.51538 3.59868C3.20169 3.93546 3.2204 4.46276 3.55718 4.77645C3.89395 5.09014 4.42126 5.07143 4.73495 4.73465L4.12516 4.16667L3.51538 3.59868ZM7.06844 1.00679L6.45865 0.438807L6.45865 0.438807L7.06844 1.00679ZM7.84856 1.00679L7.23877 1.57478L7.23877 1.57478L7.84856 1.00679ZM10.182 4.73465C10.4957 5.07143 11.023 5.09014 11.3598 4.77645C11.6966 4.46276 11.7153 3.93546 11.4016 3.59868L10.7918 4.16667L10.182 4.73465ZM0.833333 8.96534H0V14.7987H0.833333H1.66667V8.96534H0.833333ZM2.5 16.4653V17.2987H12.5V16.4653V15.632H2.5V16.4653ZM14.1667 14.7987H15V8.96532H14.1667H13.3333V14.7987H14.1667ZM12.5 7.29866V6.46532H11.9792V7.29866V8.13199H12.5V7.29866ZM2.5 7.29867V8.13201H3.02083V7.29867V6.46534H2.5V7.29867ZM12.5 16.4653V17.2987C13.8807 17.2987 15 16.1794 15 14.7987H14.1667H13.3333C13.3333 15.2589 12.9602 15.632 12.5 15.632V16.4653ZM0.833333 14.7987H0C0 16.1794 1.11929 17.2987 2.5 17.2987V16.4653V15.632C2.03976 15.632 1.66667 15.2589 1.66667 14.7987H0.833333ZM14.1667 8.96532H15C15 7.58461 13.8807 6.46532 12.5 6.46532V7.29866V8.13199C12.9602 8.13199 13.3333 8.50509 13.3333 8.96532H14.1667ZM0.833333 8.96534H1.66667C1.66667 8.5051 2.03976 8.13201 2.5 8.13201V7.29867V6.46534C1.11929 6.46534 0 7.58463 0 8.96534H0.833333ZM7.5 10.7924H8.33333V0.792369H7.5H6.66667V10.7924H7.5ZM4.12516 4.16667L4.73495 4.73465L7.67822 1.57478L7.06844 1.00679L6.45865 0.438807L3.51538 3.59868L4.12516 4.16667ZM7.84856 1.00679L7.23877 1.57478L10.182 4.73465L10.7918 4.16667L11.4016 3.59868L8.45834 0.438807L7.84856 1.00679ZM7.06844 1.00679L7.67822 1.57478C7.62844 1.62822 7.54881 1.66667 7.4585 1.66667C7.36818 1.66667 7.28855 1.62822 7.23877 1.57478L7.84856 1.00679L8.45834 0.438808C7.91337 -0.146269 7.00362 -0.146269 6.45865 0.438807L7.06844 1.00679Z" fill="var(--stroke-0, white)"/>
</svg>
