<svg preserveAspectRatio="none" width="100%" height="100%" overflow="visible" style="display: block;" viewBox="0 0 15 14" fill="none" xmlns="http://www.w3.org/2000/svg">
<path id="Icon" d="M10.8324 6.83594C11.3845 6.83606 11.8324 7.28373 11.8324 7.83594V9.33594H13.3324C13.8845 9.33606 14.3324 9.78373 14.3324 10.3359C14.3323 10.8881 13.8845 11.3358 13.3324 11.3359H11.8324V12.8359C11.8323 13.3881 11.3845 13.8358 10.8324 13.8359C10.2801 13.8359 9.8324 13.3882 9.83236 12.8359V11.3359H8.33236C7.7801 11.3359 7.3324 10.8882 7.33236 10.3359C7.33236 9.78365 7.78008 9.33594 8.33236 9.33594H9.83236V7.83594C9.83236 7.28365 10.2801 6.83594 10.8324 6.83594ZM6.00033 7.33398C6.59548 7.33398 7.34372 7.34914 8.10678 7.4082C7.55328 7.92368 7.14605 8.59413 6.95443 9.35059C6.61746 9.33959 6.29404 9.33398 6.00033 9.33398C5.00663 9.33398 3.79437 9.33786 2.7894 9.49023C2.49432 9.53499 2.26139 9.58761 2.08529 9.63867C2.17958 9.80948 2.36396 10.0451 2.69076 10.2979C3.43772 10.8755 4.64661 11.334 6.00033 11.334C6.32324 11.334 6.63767 11.3064 6.93979 11.2588C7.10566 11.961 7.4571 12.5908 7.93881 13.0957C7.325 13.2483 6.67161 13.334 6.00033 13.334C2.46348 13.334 -0.582493 10.9792 0.0950596 8.7666C0.534323 7.33354 4.07127 7.33398 6.00033 7.33398ZM6.16733 0C7.91608 0.000166899 9.33334 1.41819 9.33334 3.16699C9.33334 4.91579 7.91608 6.33382 6.16733 6.33398C4.41842 6.33398 3.00033 4.91589 3.00033 3.16699C3.00033 1.41809 4.41842 6.26928e-09 6.16733 0ZM6.16733 2C5.52299 2 5.00033 2.52266 5.00033 3.16699C5.00033 3.81132 5.52299 4.33398 6.16733 4.33398L6.28647 4.32812C6.8742 4.26829 7.33334 3.7715 7.33334 3.16699C7.33334 2.56249 6.8742 2.06569 6.28647 2.00586L6.16733 2Z" fill="var(--fill-0, #0D0D0D)"/>
</svg>
