<svg preserveAspectRatio="none" width="100%" height="100%" overflow="visible" style="display: block;" viewBox="0 0 205 30" fill="none" xmlns="http://www.w3.org/2000/svg">
<g id="&#226;&#150;&#146;&#226;&#150;&#146;&#226;&#150;&#146;&#226;&#150;&#146;&#226;&#150;&#146;&#226;&#150;&#146;&#226;&#150;&#146;&#226;&#150;&#146;&#226;&#150;&#146;&#226;&#150;&#146;&#226;&#150;&#146;&#226;&#150;&#146;&#226;&#150;&#146;&#226;&#150;&#146;&#226;&#150;&#146;&#226;&#150;&#146;&#226;&#150;&#146;&#226;&#150;&#146;&#226;&#150;&#146;&#226;&#150;&#146;&#226;&#150;&#146;">
<path id="Vector" d="M12.2727 1.36364V0H13.6364V1.36364H12.2727ZM0 30V28.6364H1.36364V30H0ZM0 27.2727V25.9091H1.36364V27.2727H0ZM1.36364 28.6364V27.2727H2.72727V28.6364H1.36364ZM2.72727 30V28.6364H4.09091V30H2.72727ZM0 24.5455V23.1818H1.36364V24.5455H0ZM1.36364 25.9091V24.5455H2.72727V25.9091H1.36364ZM2.72727 27.2727V25.9091H4.09091V27.2727H2.72727ZM4.09091 28.6364V27.2727H5.45455V28.6364H4.09091ZM5.45455 30V28.6364H6.81818V30H5.45455ZM0 21.8182V20.4545H1.36364V21.8182H0ZM1.36364 23.1818V21.8182H2.72727V23.1818H1.36364ZM2.72727 24.5455V23.1818H4.09091V24.5455H2.72727ZM4.09091 25.9091V24.5455H5.45455V25.9091H4.09091ZM5.45455 27.2727V25.9091H6.81818V27.2727H5.45455ZM6.81818 28.6364V27.2727H8.18182V28.6364H6.81818ZM8.18182 30V28.6364H9.54545V30H8.18182ZM0 19.0909V17.7273H1.36364V19.0909H0ZM1.36364 20.4545V19.0909H2.72727V20.4545H1.36364ZM2.72727 21.8182V20.4545H4.09091V21.8182H2.72727ZM4.09091 23.1818V21.8182H5.45455V23.1818H4.09091ZM5.45455 24.5455V23.1818H6.81818V24.5455H5.45455ZM6.81818 25.9091V24.5455H8.18182V25.9091H6.81818ZM8.18182 27.2727V25.9091H9.54545V27.2727H8.18182ZM9.54545 28.6364V27.2727H10.9091V28.6364H9.54545ZM10.9091 30V28.6364H12.2727V30H10.9091ZM0 16.3636V15H1.36364V16.3636H0ZM1.36364 17.7273V16.3636H2.72727V17.7273H1.36364ZM2.72727 19.0909V17.7273H4.09091V19.0909H2.72727ZM4.09091 20.4545V19.0909H5.45455V20.4545H4.09091ZM5.45455 21.8182V20.4545H6.81818V21.8182H5.45455ZM6.81818 23.1818V21.8182H8.18182V23.1818H6.81818ZM8.18182 24.5455V23.1818H9.54545V24.5455H8.18182ZM9.54545 25.9091V24.5455H10.9091V25.9091H9.54545ZM10.9091 27.2727V25.9091H12.2727V27.2727H10.9091ZM12.2727 28.6364V27.2727H13.6364V28.6364H12.2727ZM0 13.6364V12.2727H1.36364V13.6364H0ZM1.36364 15V13.6364H2.72727V15H1.36364ZM2.72727 16.3636V15H4.09091V16.3636H2.72727ZM4.09091 17.7273V16.3636H5.45455V17.7273H4.09091ZM5.45455 19.0909V17.7273H6.81818V19.0909H5.45455ZM6.81818 20.4545V19.0909H8.18182V20.4545H6.81818ZM8.18182 21.8182V20.4545H9.54545V21.8182H8.18182ZM9.54545 23.1818V21.8182H10.9091V23.1818H9.54545ZM10.9091 24.5455V23.1818H12.2727V24.5455H10.9091ZM12.2727 25.9091V24.5455H13.6364V25.9091H12.2727ZM0 10.9091V9.54546H1.36364V10.9091H0ZM1.36364 12.2727V10.9091H2.72727V12.2727H1.36364ZM2.72727 13.6364V12.2727H4.09091V13.6364H2.72727ZM4.09091 15V13.6364H5.45455V15H4.09091ZM5.45455 16.3636V15H6.81818V16.3636H5.45455ZM6.81818 17.7273V16.3636H8.18182V17.7273H6.81818ZM8.18182 19.0909V17.7273H9.54545V19.0909H8.18182ZM9.54545 20.4545V19.0909H10.9091V20.4545H9.54545ZM10.9091 21.8182V20.4545H12.2727V21.8182H10.9091ZM12.2727 23.1818V21.8182H13.6364V23.1818H12.2727ZM0 8.18182V6.81818H1.36364V8.18182H0ZM1.36364 9.54546V8.18182H2.72727V9.54546H1.36364ZM2.72727 10.9091V9.54546H4.09091V10.9091H2.72727ZM4.09091 12.2727V10.9091H5.45455V12.2727H4.09091ZM5.45455 13.6364V12.2727H6.81818V13.6364H5.45455ZM6.81818 15V13.6364H8.18182V15H6.81818ZM8.18182 16.3636V15H9.54545V16.3636H8.18182ZM9.54545 17.7273V16.3636H10.9091V17.7273H9.54545ZM10.9091 19.0909V17.7273H12.2727V19.0909H10.9091ZM12.2727 20.4545V19.0909H13.6364V20.4545H12.2727ZM0 5.45455V4.09091H1.36364V5.45455H0ZM1.36364 6.81818V5.45455H2.72727V6.81818H1.36364ZM2.72727 8.18182V6.81818H4.09091V8.18182H2.72727ZM4.09091 9.54546V8.18182H5.45455V9.54546H4.09091ZM5.45455 10.9091V9.54546H6.81818V10.9091H5.45455ZM6.81818 12.2727V10.9091H8.18182V12.2727H6.81818ZM8.18182 13.6364V12.2727H9.54545V13.6364H8.18182ZM9.54545 15V13.6364H10.9091V15H9.54545ZM10.9091 16.3636V15H12.2727V16.3636H10.9091ZM12.2727 17.7273V16.3636H13.6364V17.7273H12.2727ZM0 2.72727V1.36364H1.36364V2.72727H0ZM1.36364 4.09091V2.72727H2.72727V4.09091H1.36364ZM2.72727 5.45455V4.09091H4.09091V5.45455H2.72727ZM4.09091 6.81818V5.45455H5.45455V6.81818H4.09091ZM5.45455 8.18182V6.81818H6.81818V8.18182H5.45455ZM6.81818 9.54546V8.18182H8.18182V9.54546H6.81818ZM8.18182 10.9091V9.54546H9.54545V10.9091H8.18182ZM9.54545 12.2727V10.9091H10.9091V12.2727H9.54545ZM10.9091 13.6364V12.2727H12.2727V13.6364H10.9091ZM12.2727 15V13.6364H13.6364V15H12.2727ZM1.36364 1.36364V0H2.72727V1.36364H1.36364ZM2.72727 2.72727V1.36364H4.09091V2.72727H2.72727ZM4.09091 4.09091V2.72727H5.45455V4.09091H4.09091ZM5.45455 5.45455V4.09091H6.81818V5.45455H5.45455ZM6.81818 6.81818V5.45455H8.18182V6.81818H6.81818ZM8.18182 8.18182V6.81818H9.54545V8.18182H8.18182ZM9.54545 9.54546V8.18182H10.9091V9.54546H9.54545ZM10.9091 10.9091V9.54546H12.2727V10.9091H10.9091ZM12.2727 12.2727V10.9091H13.6364V12.2727H12.2727ZM4.09091 1.36364V0H5.45455V1.36364H4.09091ZM5.45455 2.72727V1.36364H6.81818V2.72727H5.45455ZM6.81818 4.09091V2.72727H8.18182V4.09091H6.81818ZM8.18182 5.45455V4.09091H9.54545V5.45455H8.18182ZM9.54545 6.81818V5.45455H10.9091V6.81818H9.54545ZM10.9091 8.18182V6.81818H12.2727V8.18182H10.9091ZM12.2727 9.54546V8.18182H13.6364V9.54546H12.2727ZM6.81818 1.36364V0H8.18182V1.36364H6.81818ZM8.18182 2.72727V1.36364H9.54545V2.72727H8.18182ZM9.54545 4.09091V2.72727H10.9091V4.09091H9.54545ZM10.9091 5.45455V4.09091H12.2727V5.45455H10.9091ZM12.2727 6.81818V5.45455H13.6364V6.81818H12.2727ZM9.54545 1.36364V0H10.9091V1.36364H9.54545ZM10.9091 2.72727V1.36364H12.2727V2.72727H10.9091ZM12.2727 4.09091V2.72727H13.6364V4.09091H12.2727Z" fill="var(--fill-0, white)" fill-opacity="0.11"/>
<path id="Vector_2" d="M25.9091 1.36364V0H27.2727V1.36364H25.9091ZM13.6364 30V28.6364H15V30H13.6364ZM13.6364 27.2727V25.9091H15V27.2727H13.6364ZM15 28.6364V27.2727H16.3636V28.6364H15ZM16.3636 30V28.6364H17.7273V30H16.3636ZM13.6364 24.5455V23.1818H15V24.5455H13.6364ZM15 25.9091V24.5455H16.3636V25.9091H15ZM16.3636 27.2727V25.9091H17.7273V27.2727H16.3636ZM17.7273 28.6364V27.2727H19.0909V28.6364H17.7273ZM19.0909 30V28.6364H20.4545V30H19.0909ZM13.6364 21.8182V20.4545H15V21.8182H13.6364ZM15 23.1818V21.8182H16.3636V23.1818H15ZM16.3636 24.5455V23.1818H17.7273V24.5455H16.3636ZM17.7273 25.9091V24.5455H19.0909V25.9091H17.7273ZM19.0909 27.2727V25.9091H20.4545V27.2727H19.0909ZM20.4545 28.6364V27.2727H21.8182V28.6364H20.4545ZM21.8182 30V28.6364H23.1818V30H21.8182ZM13.6364 19.0909V17.7273H15V19.0909H13.6364ZM15 20.4545V19.0909H16.3636V20.4545H15ZM16.3636 21.8182V20.4545H17.7273V21.8182H16.3636ZM17.7273 23.1818V21.8182H19.0909V23.1818H17.7273ZM19.0909 24.5455V23.1818H20.4545V24.5455H19.0909ZM20.4545 25.9091V24.5455H21.8182V25.9091H20.4545ZM21.8182 27.2727V25.9091H23.1818V27.2727H21.8182ZM23.1818 28.6364V27.2727H24.5455V28.6364H23.1818ZM24.5455 30V28.6364H25.9091V30H24.5455ZM13.6364 16.3636V15H15V16.3636H13.6364ZM15 17.7273V16.3636H16.3636V17.7273H15ZM16.3636 19.0909V17.7273H17.7273V19.0909H16.3636ZM17.7273 20.4545V19.0909H19.0909V20.4545H17.7273ZM19.0909 21.8182V20.4545H20.4545V21.8182H19.0909ZM20.4545 23.1818V21.8182H21.8182V23.1818H20.4545ZM21.8182 24.5455V23.1818H23.1818V24.5455H21.8182ZM23.1818 25.9091V24.5455H24.5455V25.9091H23.1818ZM24.5455 27.2727V25.9091H25.9091V27.2727H24.5455ZM25.9091 28.6364V27.2727H27.2727V28.6364H25.9091ZM13.6364 13.6364V12.2727H15V13.6364H13.6364ZM15 15V13.6364H16.3636V15H15ZM16.3636 16.3636V15H17.7273V16.3636H16.3636ZM17.7273 17.7273V16.3636H19.0909V17.7273H17.7273ZM19.0909 19.0909V17.7273H20.4545V19.0909H19.0909ZM20.4545 20.4545V19.0909H21.8182V20.4545H20.4545ZM21.8182 21.8182V20.4545H23.1818V21.8182H21.8182ZM23.1818 23.1818V21.8182H24.5455V23.1818H23.1818ZM24.5455 24.5455V23.1818H25.9091V24.5455H24.5455ZM25.9091 25.9091V24.5455H27.2727V25.9091H25.9091ZM13.6364 10.9091V9.54546H15V10.9091H13.6364ZM15 12.2727V10.9091H16.3636V12.2727H15ZM16.3636 13.6364V12.2727H17.7273V13.6364H16.3636ZM17.7273 15V13.6364H19.0909V15H17.7273ZM19.0909 16.3636V15H20.4545V16.3636H19.0909ZM20.4545 17.7273V16.3636H21.8182V17.7273H20.4545ZM21.8182 19.0909V17.7273H23.1818V19.0909H21.8182ZM23.1818 20.4545V19.0909H24.5455V20.4545H23.1818ZM24.5455 21.8182V20.4545H25.9091V21.8182H24.5455ZM25.9091 23.1818V21.8182H27.2727V23.1818H25.9091ZM13.6364 8.18182V6.81818H15V8.18182H13.6364ZM15 9.54546V8.18182H16.3636V9.54546H15ZM16.3636 10.9091V9.54546H17.7273V10.9091H16.3636ZM17.7273 12.2727V10.9091H19.0909V12.2727H17.7273ZM19.0909 13.6364V12.2727H20.4545V13.6364H19.0909ZM20.4545 15V13.6364H21.8182V15H20.4545ZM21.8182 16.3636V15H23.1818V16.3636H21.8182ZM23.1818 17.7273V16.3636H24.5455V17.7273H23.1818ZM24.5455 19.0909V17.7273H25.9091V19.0909H24.5455ZM25.9091 20.4545V19.0909H27.2727V20.4545H25.9091ZM13.6364 5.45455V4.09091H15V5.45455H13.6364ZM15 6.81818V5.45455H16.3636V6.81818H15ZM16.3636 8.18182V6.81818H17.7273V8.18182H16.3636ZM17.7273 9.54546V8.18182H19.0909V9.54546H17.7273ZM19.0909 10.9091V9.54546H20.4545V10.9091H19.0909ZM20.4545 12.2727V10.9091H21.8182V12.2727H20.4545ZM21.8182 13.6364V12.2727H23.1818V13.6364H21.8182ZM23.1818 15V13.6364H24.5455V15H23.1818ZM24.5455 16.3636V15H25.9091V16.3636H24.5455ZM25.9091 17.7273V16.3636H27.2727V17.7273H25.9091ZM13.6364 2.72727V1.36364H15V2.72727H13.6364ZM15 4.09091V2.72727H16.3636V4.09091H15ZM16.3636 5.45455V4.09091H17.7273V5.45455H16.3636ZM17.7273 6.81818V5.45455H19.0909V6.81818H17.7273ZM19.0909 8.18182V6.81818H20.4545V8.18182H19.0909ZM20.4545 9.54546V8.18182H21.8182V9.54546H20.4545ZM21.8182 10.9091V9.54546H23.1818V10.9091H21.8182ZM23.1818 12.2727V10.9091H24.5455V12.2727H23.1818ZM24.5455 13.6364V12.2727H25.9091V13.6364H24.5455ZM25.9091 15V13.6364H27.2727V15H25.9091ZM15 1.36364V0H16.3636V1.36364H15ZM16.3636 2.72727V1.36364H17.7273V2.72727H16.3636ZM17.7273 4.09091V2.72727H19.0909V4.09091H17.7273ZM19.0909 5.45455V4.09091H20.4545V5.45455H19.0909ZM20.4545 6.81818V5.45455H21.8182V6.81818H20.4545ZM21.8182 8.18182V6.81818H23.1818V8.18182H21.8182ZM23.1818 9.54546V8.18182H24.5455V9.54546H23.1818ZM24.5455 10.9091V9.54546H25.9091V10.9091H24.5455ZM25.9091 12.2727V10.9091H27.2727V12.2727H25.9091ZM17.7273 1.36364V0H19.0909V1.36364H17.7273ZM19.0909 2.72727V1.36364H20.4545V2.72727H19.0909ZM20.4545 4.09091V2.72727H21.8182V4.09091H20.4545ZM21.8182 5.45455V4.09091H23.1818V5.45455H21.8182ZM23.1818 6.81818V5.45455H24.5455V6.81818H23.1818ZM24.5455 8.18182V6.81818H25.9091V8.18182H24.5455ZM25.9091 9.54546V8.18182H27.2727V9.54546H25.9091ZM20.4545 1.36364V0H21.8182V1.36364H20.4545ZM21.8182 2.72727V1.36364H23.1818V2.72727H21.8182ZM23.1818 4.09091V2.72727H24.5455V4.09091H23.1818ZM24.5455 5.45455V4.09091H25.9091V5.45455H24.5455ZM25.9091 6.81818V5.45455H27.2727V6.81818H25.9091ZM23.1818 1.36364V0H24.5455V1.36364H23.1818ZM24.5455 2.72727V1.36364H25.9091V2.72727H24.5455ZM25.9091 4.09091V2.72727H27.2727V4.09091H25.9091Z" fill="var(--fill-0, white)" fill-opacity="0.11"/>
<path id="Vector_3" d="M39.5456 1.36364V0H40.9092V1.36364H39.5456ZM27.2729 30V28.6364H28.6365V30H27.2729ZM27.2729 27.2727V25.9091H28.6365V27.2727H27.2729ZM28.6365 28.6364V27.2727H30.0001V28.6364H28.6365ZM30.0001 30V28.6364H31.3638V30H30.0001ZM27.2729 24.5455V23.1818H28.6365V24.5455H27.2729ZM28.6365 25.9091V24.5455H30.0001V25.9091H28.6365ZM30.0001 27.2727V25.9091H31.3638V27.2727H30.0001ZM31.3638 28.6364V27.2727H32.7274V28.6364H31.3638ZM32.7274 30V28.6364H34.091V30H32.7274ZM27.2729 21.8182V20.4545H28.6365V21.8182H27.2729ZM28.6365 23.1818V21.8182H30.0001V23.1818H28.6365ZM30.0001 24.5455V23.1818H31.3638V24.5455H30.0001ZM31.3638 25.9091V24.5455H32.7274V25.9091H31.3638ZM32.7274 27.2727V25.9091H34.091V27.2727H32.7274ZM34.091 28.6364V27.2727H35.4547V28.6364H34.091ZM35.4547 30V28.6364H36.8183V30H35.4547ZM27.2729 19.0909V17.7273H28.6365V19.0909H27.2729ZM28.6365 20.4545V19.0909H30.0001V20.4545H28.6365ZM30.0001 21.8182V20.4545H31.3638V21.8182H30.0001ZM31.3638 23.1818V21.8182H32.7274V23.1818H31.3638ZM32.7274 24.5455V23.1818H34.091V24.5455H32.7274ZM34.091 25.9091V24.5455H35.4547V25.9091H34.091ZM35.4547 27.2727V25.9091H36.8183V27.2727H35.4547ZM36.8183 28.6364V27.2727H38.182V28.6364H36.8183ZM38.182 30V28.6364H39.5456V30H38.182ZM27.2729 16.3636V15H28.6365V16.3636H27.2729ZM28.6365 17.7273V16.3636H30.0001V17.7273H28.6365ZM30.0001 19.0909V17.7273H31.3638V19.0909H30.0001ZM31.3638 20.4545V19.0909H32.7274V20.4545H31.3638ZM32.7274 21.8182V20.4545H34.091V21.8182H32.7274ZM34.091 23.1818V21.8182H35.4547V23.1818H34.091ZM35.4547 24.5455V23.1818H36.8183V24.5455H35.4547ZM36.8183 25.9091V24.5455H38.182V25.9091H36.8183ZM38.182 27.2727V25.9091H39.5456V27.2727H38.182ZM39.5456 28.6364V27.2727H40.9092V28.6364H39.5456ZM27.2729 13.6364V12.2727H28.6365V13.6364H27.2729ZM28.6365 15V13.6364H30.0001V15H28.6365ZM30.0001 16.3636V15H31.3638V16.3636H30.0001ZM31.3638 17.7273V16.3636H32.7274V17.7273H31.3638ZM32.7274 19.0909V17.7273H34.091V19.0909H32.7274ZM34.091 20.4545V19.0909H35.4547V20.4545H34.091ZM35.4547 21.8182V20.4545H36.8183V21.8182H35.4547ZM36.8183 23.1818V21.8182H38.182V23.1818H36.8183ZM38.182 24.5455V23.1818H39.5456V24.5455H38.182ZM39.5456 25.9091V24.5455H40.9092V25.9091H39.5456ZM27.2729 10.9091V9.54546H28.6365V10.9091H27.2729ZM28.6365 12.2727V10.9091H30.0001V12.2727H28.6365ZM30.0001 13.6364V12.2727H31.3638V13.6364H30.0001ZM31.3638 15V13.6364H32.7274V15H31.3638ZM32.7274 16.3636V15H34.091V16.3636H32.7274ZM34.091 17.7273V16.3636H35.4547V17.7273H34.091ZM35.4547 19.0909V17.7273H36.8183V19.0909H35.4547ZM36.8183 20.4545V19.0909H38.182V20.4545H36.8183ZM38.182 21.8182V20.4545H39.5456V21.8182H38.182ZM39.5456 23.1818V21.8182H40.9092V23.1818H39.5456ZM27.2729 8.18182V6.81818H28.6365V8.18182H27.2729ZM28.6365 9.54546V8.18182H30.0001V9.54546H28.6365ZM30.0001 10.9091V9.54546H31.3638V10.9091H30.0001ZM31.3638 12.2727V10.9091H32.7274V12.2727H31.3638ZM32.7274 13.6364V12.2727H34.091V13.6364H32.7274ZM34.091 15V13.6364H35.4547V15H34.091ZM35.4547 16.3636V15H36.8183V16.3636H35.4547ZM36.8183 17.7273V16.3636H38.182V17.7273H36.8183ZM38.182 19.0909V17.7273H39.5456V19.0909H38.182ZM39.5456 20.4545V19.0909H40.9092V20.4545H39.5456ZM27.2729 5.45455V4.09091H28.6365V5.45455H27.2729ZM28.6365 6.81818V5.45455H30.0001V6.81818H28.6365ZM30.0001 8.18182V6.81818H31.3638V8.18182H30.0001ZM31.3638 9.54546V8.18182H32.7274V9.54546H31.3638ZM32.7274 10.9091V9.54546H34.091V10.9091H32.7274ZM34.091 12.2727V10.9091H35.4547V12.2727H34.091ZM35.4547 13.6364V12.2727H36.8183V13.6364H35.4547ZM36.8183 15V13.6364H38.182V15H36.8183ZM38.182 16.3636V15H39.5456V16.3636H38.182ZM39.5456 17.7273V16.3636H40.9092V17.7273H39.5456ZM27.2729 2.72727V1.36364H28.6365V2.72727H27.2729ZM28.6365 4.09091V2.72727H30.0001V4.09091H28.6365ZM30.0001 5.45455V4.09091H31.3638V5.45455H30.0001ZM31.3638 6.81818V5.45455H32.7274V6.81818H31.3638ZM32.7274 8.18182V6.81818H34.091V8.18182H32.7274ZM34.091 9.54546V8.18182H35.4547V9.54546H34.091ZM35.4547 10.9091V9.54546H36.8183V10.9091H35.4547ZM36.8183 12.2727V10.9091H38.182V12.2727H36.8183ZM38.182 13.6364V12.2727H39.5456V13.6364H38.182ZM39.5456 15V13.6364H40.9092V15H39.5456ZM28.6365 1.36364V0H30.0001V1.36364H28.6365ZM30.0001 2.72727V1.36364H31.3638V2.72727H30.0001ZM31.3638 4.09091V2.72727H32.7274V4.09091H31.3638ZM32.7274 5.45455V4.09091H34.091V5.45455H32.7274ZM34.091 6.81818V5.45455H35.4547V6.81818H34.091ZM35.4547 8.18182V6.81818H36.8183V8.18182H35.4547ZM36.8183 9.54546V8.18182H38.182V9.54546H36.8183ZM38.182 10.9091V9.54546H39.5456V10.9091H38.182ZM39.5456 12.2727V10.9091H40.9092V12.2727H39.5456ZM31.3638 1.36364V0H32.7274V1.36364H31.3638ZM32.7274 2.72727V1.36364H34.091V2.72727H32.7274ZM34.091 4.09091V2.72727H35.4547V4.09091H34.091ZM35.4547 5.45455V4.09091H36.8183V5.45455H35.4547ZM36.8183 6.81818V5.45455H38.182V6.81818H36.8183ZM38.182 8.18182V6.81818H39.5456V8.18182H38.182ZM39.5456 9.54546V8.18182H40.9092V9.54546H39.5456ZM34.091 1.36364V0H35.4547V1.36364H34.091ZM35.4547 2.72727V1.36364H36.8183V2.72727H35.4547ZM36.8183 4.09091V2.72727H38.182V4.09091H36.8183ZM38.182 5.45455V4.09091H39.5456V5.45455H38.182ZM39.5456 6.81818V5.45455H40.9092V6.81818H39.5456ZM36.8183 1.36364V0H38.182V1.36364H36.8183ZM38.182 2.72727V1.36364H39.5456V2.72727H38.182ZM39.5456 4.09091V2.72727H40.9092V4.09091H39.5456Z" fill="var(--fill-0, white)" fill-opacity="0.11"/>
<path id="Vector_4" d="M53.1819 1.36364V0H54.5456V1.36364H53.1819ZM40.9092 30V28.6364H42.2729V30H40.9092ZM40.9092 27.2727V25.9091H42.2729V27.2727H40.9092ZM42.2729 28.6364V27.2727H43.6365V28.6364H42.2729ZM43.6365 30V28.6364H45.0001V30H43.6365ZM40.9092 24.5455V23.1818H42.2729V24.5455H40.9092ZM42.2729 25.9091V24.5455H43.6365V25.9091H42.2729ZM43.6365 27.2727V25.9091H45.0001V27.2727H43.6365ZM45.0001 28.6364V27.2727H46.3638V28.6364H45.0001ZM46.3638 30V28.6364H47.7274V30H46.3638ZM40.9092 21.8182V20.4545H42.2729V21.8182H40.9092ZM42.2729 23.1818V21.8182H43.6365V23.1818H42.2729ZM43.6365 24.5455V23.1818H45.0001V24.5455H43.6365ZM45.0001 25.9091V24.5455H46.3638V25.9091H45.0001ZM46.3638 27.2727V25.9091H47.7274V27.2727H46.3638ZM47.7274 28.6364V27.2727H49.091V28.6364H47.7274ZM49.091 30V28.6364H50.4547V30H49.091ZM40.9092 19.0909V17.7273H42.2729V19.0909H40.9092ZM42.2729 20.4545V19.0909H43.6365V20.4545H42.2729ZM43.6365 21.8182V20.4545H45.0001V21.8182H43.6365ZM45.0001 23.1818V21.8182H46.3638V23.1818H45.0001ZM46.3638 24.5455V23.1818H47.7274V24.5455H46.3638ZM47.7274 25.9091V24.5455H49.091V25.9091H47.7274ZM49.091 27.2727V25.9091H50.4547V27.2727H49.091ZM50.4547 28.6364V27.2727H51.8183V28.6364H50.4547ZM51.8183 30V28.6364H53.1819V30H51.8183ZM40.9092 16.3636V15H42.2729V16.3636H40.9092ZM42.2729 17.7273V16.3636H43.6365V17.7273H42.2729ZM43.6365 19.0909V17.7273H45.0001V19.0909H43.6365ZM45.0001 20.4545V19.0909H46.3638V20.4545H45.0001ZM46.3638 21.8182V20.4545H47.7274V21.8182H46.3638ZM47.7274 23.1818V21.8182H49.091V23.1818H47.7274ZM49.091 24.5455V23.1818H50.4547V24.5455H49.091ZM50.4547 25.9091V24.5455H51.8183V25.9091H50.4547ZM51.8183 27.2727V25.9091H53.1819V27.2727H51.8183ZM53.1819 28.6364V27.2727H54.5456V28.6364H53.1819ZM40.9092 13.6364V12.2727H42.2729V13.6364H40.9092ZM42.2729 15V13.6364H43.6365V15H42.2729ZM43.6365 16.3636V15H45.0001V16.3636H43.6365ZM45.0001 17.7273V16.3636H46.3638V17.7273H45.0001ZM46.3638 19.0909V17.7273H47.7274V19.0909H46.3638ZM47.7274 20.4545V19.0909H49.091V20.4545H47.7274ZM49.091 21.8182V20.4545H50.4547V21.8182H49.091ZM50.4547 23.1818V21.8182H51.8183V23.1818H50.4547ZM51.8183 24.5455V23.1818H53.1819V24.5455H51.8183ZM53.1819 25.9091V24.5455H54.5456V25.9091H53.1819ZM40.9092 10.9091V9.54546H42.2729V10.9091H40.9092ZM42.2729 12.2727V10.9091H43.6365V12.2727H42.2729ZM43.6365 13.6364V12.2727H45.0001V13.6364H43.6365ZM45.0001 15V13.6364H46.3638V15H45.0001ZM46.3638 16.3636V15H47.7274V16.3636H46.3638ZM47.7274 17.7273V16.3636H49.091V17.7273H47.7274ZM49.091 19.0909V17.7273H50.4547V19.0909H49.091ZM50.4547 20.4545V19.0909H51.8183V20.4545H50.4547ZM51.8183 21.8182V20.4545H53.1819V21.8182H51.8183ZM53.1819 23.1818V21.8182H54.5456V23.1818H53.1819ZM40.9092 8.18182V6.81818H42.2729V8.18182H40.9092ZM42.2729 9.54546V8.18182H43.6365V9.54546H42.2729ZM43.6365 10.9091V9.54546H45.0001V10.9091H43.6365ZM45.0001 12.2727V10.9091H46.3638V12.2727H45.0001ZM46.3638 13.6364V12.2727H47.7274V13.6364H46.3638ZM47.7274 15V13.6364H49.091V15H47.7274ZM49.091 16.3636V15H50.4547V16.3636H49.091ZM50.4547 17.7273V16.3636H51.8183V17.7273H50.4547ZM51.8183 19.0909V17.7273H53.1819V19.0909H51.8183ZM53.1819 20.4545V19.0909H54.5456V20.4545H53.1819ZM40.9092 5.45455V4.09091H42.2729V5.45455H40.9092ZM42.2729 6.81818V5.45455H43.6365V6.81818H42.2729ZM43.6365 8.18182V6.81818H45.0001V8.18182H43.6365ZM45.0001 9.54546V8.18182H46.3638V9.54546H45.0001ZM46.3638 10.9091V9.54546H47.7274V10.9091H46.3638ZM47.7274 12.2727V10.9091H49.091V12.2727H47.7274ZM49.091 13.6364V12.2727H50.4547V13.6364H49.091ZM50.4547 15V13.6364H51.8183V15H50.4547ZM51.8183 16.3636V15H53.1819V16.3636H51.8183ZM53.1819 17.7273V16.3636H54.5456V17.7273H53.1819ZM40.9092 2.72727V1.36364H42.2729V2.72727H40.9092ZM42.2729 4.09091V2.72727H43.6365V4.09091H42.2729ZM43.6365 5.45455V4.09091H45.0001V5.45455H43.6365ZM45.0001 6.81818V5.45455H46.3638V6.81818H45.0001ZM46.3638 8.18182V6.81818H47.7274V8.18182H46.3638ZM47.7274 9.54546V8.18182H49.091V9.54546H47.7274ZM49.091 10.9091V9.54546H50.4547V10.9091H49.091ZM50.4547 12.2727V10.9091H51.8183V12.2727H50.4547ZM51.8183 13.6364V12.2727H53.1819V13.6364H51.8183ZM53.1819 15V13.6364H54.5456V15H53.1819ZM42.2729 1.36364V0H43.6365V1.36364H42.2729ZM43.6365 2.72727V1.36364H45.0001V2.72727H43.6365ZM45.0001 4.09091V2.72727H46.3638V4.09091H45.0001ZM46.3638 5.45455V4.09091H47.7274V5.45455H46.3638ZM47.7274 6.81818V5.45455H49.091V6.81818H47.7274ZM49.091 8.18182V6.81818H50.4547V8.18182H49.091ZM50.4547 9.54546V8.18182H51.8183V9.54546H50.4547ZM51.8183 10.9091V9.54546H53.1819V10.9091H51.8183ZM53.1819 12.2727V10.9091H54.5456V12.2727H53.1819ZM45.0001 1.36364V0H46.3638V1.36364H45.0001ZM46.3638 2.72727V1.36364H47.7274V2.72727H46.3638ZM47.7274 4.09091V2.72727H49.091V4.09091H47.7274ZM49.091 5.45455V4.09091H50.4547V5.45455H49.091ZM50.4547 6.81818V5.45455H51.8183V6.81818H50.4547ZM51.8183 8.18182V6.81818H53.1819V8.18182H51.8183ZM53.1819 9.54546V8.18182H54.5456V9.54546H53.1819ZM47.7274 1.36364V0H49.091V1.36364H47.7274ZM49.091 2.72727V1.36364H50.4547V2.72727H49.091ZM50.4547 4.09091V2.72727H51.8183V4.09091H50.4547ZM51.8183 5.45455V4.09091H53.1819V5.45455H51.8183ZM53.1819 6.81818V5.45455H54.5456V6.81818H53.1819ZM50.4547 1.36364V0H51.8183V1.36364H50.4547ZM51.8183 2.72727V1.36364H53.1819V2.72727H51.8183ZM53.1819 4.09091V2.72727H54.5456V4.09091H53.1819Z" fill="var(--fill-0, white)" fill-opacity="0.11"/>
<path id="Vector_5" d="M66.8183 1.36364V0H68.1819V1.36364H66.8183ZM54.5456 30V28.6364H55.9092V30H54.5456ZM54.5456 27.2727V25.9091H55.9092V27.2727H54.5456ZM55.9092 28.6364V27.2727H57.2729V28.6364H55.9092ZM57.2729 30V28.6364H58.6365V30H57.2729ZM54.5456 24.5455V23.1818H55.9092V24.5455H54.5456ZM55.9092 25.9091V24.5455H57.2729V25.9091H55.9092ZM57.2729 27.2727V25.9091H58.6365V27.2727H57.2729ZM58.6365 28.6364V27.2727H60.0001V28.6364H58.6365ZM60.0001 30V28.6364H61.3638V30H60.0001ZM54.5456 21.8182V20.4545H55.9092V21.8182H54.5456ZM55.9092 23.1818V21.8182H57.2729V23.1818H55.9092ZM57.2729 24.5455V23.1818H58.6365V24.5455H57.2729ZM58.6365 25.9091V24.5455H60.0001V25.9091H58.6365ZM60.0001 27.2727V25.9091H61.3638V27.2727H60.0001ZM61.3638 28.6364V27.2727H62.7274V28.6364H61.3638ZM62.7274 30V28.6364H64.091V30H62.7274ZM54.5456 19.0909V17.7273H55.9092V19.0909H54.5456ZM55.9092 20.4545V19.0909H57.2729V20.4545H55.9092ZM57.2729 21.8182V20.4545H58.6365V21.8182H57.2729ZM58.6365 23.1818V21.8182H60.0001V23.1818H58.6365ZM60.0001 24.5455V23.1818H61.3638V24.5455H60.0001ZM61.3638 25.9091V24.5455H62.7274V25.9091H61.3638ZM62.7274 27.2727V25.9091H64.091V27.2727H62.7274ZM64.091 28.6364V27.2727H65.4547V28.6364H64.091ZM65.4547 30V28.6364H66.8183V30H65.4547ZM54.5456 16.3636V15H55.9092V16.3636H54.5456ZM55.9092 17.7273V16.3636H57.2729V17.7273H55.9092ZM57.2729 19.0909V17.7273H58.6365V19.0909H57.2729ZM58.6365 20.4545V19.0909H60.0001V20.4545H58.6365ZM60.0001 21.8182V20.4545H61.3638V21.8182H60.0001ZM61.3638 23.1818V21.8182H62.7274V23.1818H61.3638ZM62.7274 24.5455V23.1818H64.091V24.5455H62.7274ZM64.091 25.9091V24.5455H65.4547V25.9091H64.091ZM65.4547 27.2727V25.9091H66.8183V27.2727H65.4547ZM66.8183 28.6364V27.2727H68.1819V28.6364H66.8183ZM54.5456 13.6364V12.2727H55.9092V13.6364H54.5456ZM55.9092 15V13.6364H57.2729V15H55.9092ZM57.2729 16.3636V15H58.6365V16.3636H57.2729ZM58.6365 17.7273V16.3636H60.0001V17.7273H58.6365ZM60.0001 19.0909V17.7273H61.3638V19.0909H60.0001ZM61.3638 20.4545V19.0909H62.7274V20.4545H61.3638ZM62.7274 21.8182V20.4545H64.091V21.8182H62.7274ZM64.091 23.1818V21.8182H65.4547V23.1818H64.091ZM65.4547 24.5455V23.1818H66.8183V24.5455H65.4547ZM66.8183 25.9091V24.5455H68.1819V25.9091H66.8183ZM54.5456 10.9091V9.54546H55.9092V10.9091H54.5456ZM55.9092 12.2727V10.9091H57.2729V12.2727H55.9092ZM57.2729 13.6364V12.2727H58.6365V13.6364H57.2729ZM58.6365 15V13.6364H60.0001V15H58.6365ZM60.0001 16.3636V15H61.3638V16.3636H60.0001ZM61.3638 17.7273V16.3636H62.7274V17.7273H61.3638ZM62.7274 19.0909V17.7273H64.091V19.0909H62.7274ZM64.091 20.4545V19.0909H65.4547V20.4545H64.091ZM65.4547 21.8182V20.4545H66.8183V21.8182H65.4547ZM66.8183 23.1818V21.8182H68.1819V23.1818H66.8183ZM54.5456 8.18182V6.81818H55.9092V8.18182H54.5456ZM55.9092 9.54546V8.18182H57.2729V9.54546H55.9092ZM57.2729 10.9091V9.54546H58.6365V10.9091H57.2729ZM58.6365 12.2727V10.9091H60.0001V12.2727H58.6365ZM60.0001 13.6364V12.2727H61.3638V13.6364H60.0001ZM61.3638 15V13.6364H62.7274V15H61.3638ZM62.7274 16.3636V15H64.091V16.3636H62.7274ZM64.091 17.7273V16.3636H65.4547V17.7273H64.091ZM65.4547 19.0909V17.7273H66.8183V19.0909H65.4547ZM66.8183 20.4545V19.0909H68.1819V20.4545H66.8183ZM54.5456 5.45455V4.09091H55.9092V5.45455H54.5456ZM55.9092 6.81818V5.45455H57.2729V6.81818H55.9092ZM57.2729 8.18182V6.81818H58.6365V8.18182H57.2729ZM58.6365 9.54546V8.18182H60.0001V9.54546H58.6365ZM60.0001 10.9091V9.54546H61.3638V10.9091H60.0001ZM61.3638 12.2727V10.9091H62.7274V12.2727H61.3638ZM62.7274 13.6364V12.2727H64.091V13.6364H62.7274ZM64.091 15V13.6364H65.4547V15H64.091ZM65.4547 16.3636V15H66.8183V16.3636H65.4547ZM66.8183 17.7273V16.3636H68.1819V17.7273H66.8183ZM54.5456 2.72727V1.36364H55.9092V2.72727H54.5456ZM55.9092 4.09091V2.72727H57.2729V4.09091H55.9092ZM57.2729 5.45455V4.09091H58.6365V5.45455H57.2729ZM58.6365 6.81818V5.45455H60.0001V6.81818H58.6365ZM60.0001 8.18182V6.81818H61.3638V8.18182H60.0001ZM61.3638 9.54546V8.18182H62.7274V9.54546H61.3638ZM62.7274 10.9091V9.54546H64.091V10.9091H62.7274ZM64.091 12.2727V10.9091H65.4547V12.2727H64.091ZM65.4547 13.6364V12.2727H66.8183V13.6364H65.4547ZM66.8183 15V13.6364H68.1819V15H66.8183ZM55.9092 1.36364V0H57.2729V1.36364H55.9092ZM57.2729 2.72727V1.36364H58.6365V2.72727H57.2729ZM58.6365 4.09091V2.72727H60.0001V4.09091H58.6365ZM60.0001 5.45455V4.09091H61.3638V5.45455H60.0001ZM61.3638 6.81818V5.45455H62.7274V6.81818H61.3638ZM62.7274 8.18182V6.81818H64.091V8.18182H62.7274ZM64.091 9.54546V8.18182H65.4547V9.54546H64.091ZM65.4547 10.9091V9.54546H66.8183V10.9091H65.4547ZM66.8183 12.2727V10.9091H68.1819V12.2727H66.8183ZM58.6365 1.36364V0H60.0001V1.36364H58.6365ZM60.0001 2.72727V1.36364H61.3638V2.72727H60.0001ZM61.3638 4.09091V2.72727H62.7274V4.09091H61.3638ZM62.7274 5.45455V4.09091H64.091V5.45455H62.7274ZM64.091 6.81818V5.45455H65.4547V6.81818H64.091ZM65.4547 8.18182V6.81818H66.8183V8.18182H65.4547ZM66.8183 9.54546V8.18182H68.1819V9.54546H66.8183ZM61.3638 1.36364V0H62.7274V1.36364H61.3638ZM62.7274 2.72727V1.36364H64.091V2.72727H62.7274ZM64.091 4.09091V2.72727H65.4547V4.09091H64.091ZM65.4547 5.45455V4.09091H66.8183V5.45455H65.4547ZM66.8183 6.81818V5.45455H68.1819V6.81818H66.8183ZM64.091 1.36364V0H65.4547V1.36364H64.091ZM65.4547 2.72727V1.36364H66.8183V2.72727H65.4547ZM66.8183 4.09091V2.72727H68.1819V4.09091H66.8183Z" fill="var(--fill-0, white)" fill-opacity="0.11"/>
<path id="Vector_6" d="M80.4547 1.36364V0H81.8183V1.36364H80.4547ZM68.1819 30V28.6364H69.5456V30H68.1819ZM68.1819 27.2727V25.9091H69.5456V27.2727H68.1819ZM69.5456 28.6364V27.2727H70.9092V28.6364H69.5456ZM70.9092 30V28.6364H72.2729V30H70.9092ZM68.1819 24.5455V23.1818H69.5456V24.5455H68.1819ZM69.5456 25.9091V24.5455H70.9092V25.9091H69.5456ZM70.9092 27.2727V25.9091H72.2729V27.2727H70.9092ZM72.2729 28.6364V27.2727H73.6365V28.6364H72.2729ZM73.6365 30V28.6364H75.0001V30H73.6365ZM68.1819 21.8182V20.4545H69.5456V21.8182H68.1819ZM69.5456 23.1818V21.8182H70.9092V23.1818H69.5456ZM70.9092 24.5455V23.1818H72.2729V24.5455H70.9092ZM72.2729 25.9091V24.5455H73.6365V25.9091H72.2729ZM73.6365 27.2727V25.9091H75.0001V27.2727H73.6365ZM75.0001 28.6364V27.2727H76.3638V28.6364H75.0001ZM76.3638 30V28.6364H77.7274V30H76.3638ZM68.1819 19.0909V17.7273H69.5456V19.0909H68.1819ZM69.5456 20.4545V19.0909H70.9092V20.4545H69.5456ZM70.9092 21.8182V20.4545H72.2729V21.8182H70.9092ZM72.2729 23.1818V21.8182H73.6365V23.1818H72.2729ZM73.6365 24.5455V23.1818H75.0001V24.5455H73.6365ZM75.0001 25.9091V24.5455H76.3638V25.9091H75.0001ZM76.3638 27.2727V25.9091H77.7274V27.2727H76.3638ZM77.7274 28.6364V27.2727H79.091V28.6364H77.7274ZM79.091 30V28.6364H80.4547V30H79.091ZM68.1819 16.3636V15H69.5456V16.3636H68.1819ZM69.5456 17.7273V16.3636H70.9092V17.7273H69.5456ZM70.9092 19.0909V17.7273H72.2729V19.0909H70.9092ZM72.2729 20.4545V19.0909H73.6365V20.4545H72.2729ZM73.6365 21.8182V20.4545H75.0001V21.8182H73.6365ZM75.0001 23.1818V21.8182H76.3638V23.1818H75.0001ZM76.3638 24.5455V23.1818H77.7274V24.5455H76.3638ZM77.7274 25.9091V24.5455H79.091V25.9091H77.7274ZM79.091 27.2727V25.9091H80.4547V27.2727H79.091ZM80.4547 28.6364V27.2727H81.8183V28.6364H80.4547ZM68.1819 13.6364V12.2727H69.5456V13.6364H68.1819ZM69.5456 15V13.6364H70.9092V15H69.5456ZM70.9092 16.3636V15H72.2729V16.3636H70.9092ZM72.2729 17.7273V16.3636H73.6365V17.7273H72.2729ZM73.6365 19.0909V17.7273H75.0001V19.0909H73.6365ZM75.0001 20.4545V19.0909H76.3638V20.4545H75.0001ZM76.3638 21.8182V20.4545H77.7274V21.8182H76.3638ZM77.7274 23.1818V21.8182H79.091V23.1818H77.7274ZM79.091 24.5455V23.1818H80.4547V24.5455H79.091ZM80.4547 25.9091V24.5455H81.8183V25.9091H80.4547ZM68.1819 10.9091V9.54546H69.5456V10.9091H68.1819ZM69.5456 12.2727V10.9091H70.9092V12.2727H69.5456ZM70.9092 13.6364V12.2727H72.2729V13.6364H70.9092ZM72.2729 15V13.6364H73.6365V15H72.2729ZM73.6365 16.3636V15H75.0001V16.3636H73.6365ZM75.0001 17.7273V16.3636H76.3638V17.7273H75.0001ZM76.3638 19.0909V17.7273H77.7274V19.0909H76.3638ZM77.7274 20.4545V19.0909H79.091V20.4545H77.7274ZM79.091 21.8182V20.4545H80.4547V21.8182H79.091ZM80.4547 23.1818V21.8182H81.8183V23.1818H80.4547ZM68.1819 8.18182V6.81818H69.5456V8.18182H68.1819ZM69.5456 9.54546V8.18182H70.9092V9.54546H69.5456ZM70.9092 10.9091V9.54546H72.2729V10.9091H70.9092ZM72.2729 12.2727V10.9091H73.6365V12.2727H72.2729ZM73.6365 13.6364V12.2727H75.0001V13.6364H73.6365ZM75.0001 15V13.6364H76.3638V15H75.0001ZM76.3638 16.3636V15H77.7274V16.3636H76.3638ZM77.7274 17.7273V16.3636H79.091V17.7273H77.7274ZM79.091 19.0909V17.7273H80.4547V19.0909H79.091ZM80.4547 20.4545V19.0909H81.8183V20.4545H80.4547ZM68.1819 5.45455V4.09091H69.5456V5.45455H68.1819ZM69.5456 6.81818V5.45455H70.9092V6.81818H69.5456ZM70.9092 8.18182V6.81818H72.2729V8.18182H70.9092ZM72.2729 9.54546V8.18182H73.6365V9.54546H72.2729ZM73.6365 10.9091V9.54546H75.0001V10.9091H73.6365ZM75.0001 12.2727V10.9091H76.3638V12.2727H75.0001ZM76.3638 13.6364V12.2727H77.7274V13.6364H76.3638ZM77.7274 15V13.6364H79.091V15H77.7274ZM79.091 16.3636V15H80.4547V16.3636H79.091ZM80.4547 17.7273V16.3636H81.8183V17.7273H80.4547ZM68.1819 2.72727V1.36364H69.5456V2.72727H68.1819ZM69.5456 4.09091V2.72727H70.9092V4.09091H69.5456ZM70.9092 5.45455V4.09091H72.2729V5.45455H70.9092ZM72.2729 6.81818V5.45455H73.6365V6.81818H72.2729ZM73.6365 8.18182V6.81818H75.0001V8.18182H73.6365ZM75.0001 9.54546V8.18182H76.3638V9.54546H75.0001ZM76.3638 10.9091V9.54546H77.7274V10.9091H76.3638ZM77.7274 12.2727V10.9091H79.091V12.2727H77.7274ZM79.091 13.6364V12.2727H80.4547V13.6364H79.091ZM80.4547 15V13.6364H81.8183V15H80.4547ZM69.5456 1.36364V0H70.9092V1.36364H69.5456ZM70.9092 2.72727V1.36364H72.2729V2.72727H70.9092ZM72.2729 4.09091V2.72727H73.6365V4.09091H72.2729ZM73.6365 5.45455V4.09091H75.0001V5.45455H73.6365ZM75.0001 6.81818V5.45455H76.3638V6.81818H75.0001ZM76.3638 8.18182V6.81818H77.7274V8.18182H76.3638ZM77.7274 9.54546V8.18182H79.091V9.54546H77.7274ZM79.091 10.9091V9.54546H80.4547V10.9091H79.091ZM80.4547 12.2727V10.9091H81.8183V12.2727H80.4547ZM72.2729 1.36364V0H73.6365V1.36364H72.2729ZM73.6365 2.72727V1.36364H75.0001V2.72727H73.6365ZM75.0001 4.09091V2.72727H76.3638V4.09091H75.0001ZM76.3638 5.45455V4.09091H77.7274V5.45455H76.3638ZM77.7274 6.81818V5.45455H79.091V6.81818H77.7274ZM79.091 8.18182V6.81818H80.4547V8.18182H79.091ZM80.4547 9.54546V8.18182H81.8183V9.54546H80.4547ZM75.0001 1.36364V0H76.3638V1.36364H75.0001ZM76.3638 2.72727V1.36364H77.7274V2.72727H76.3638ZM77.7274 4.09091V2.72727H79.091V4.09091H77.7274ZM79.091 5.45455V4.09091H80.4547V5.45455H79.091ZM80.4547 6.81818V5.45455H81.8183V6.81818H80.4547ZM77.7274 1.36364V0H79.091V1.36364H77.7274ZM79.091 2.72727V1.36364H80.4547V2.72727H79.091ZM80.4547 4.09091V2.72727H81.8183V4.09091H80.4547Z" fill="var(--fill-0, white)" fill-opacity="0.11"/>
<path id="Vector_7" d="M94.091 1.36364V0H95.4547V1.36364H94.091ZM81.8183 30V28.6364H83.1819V30H81.8183ZM81.8183 27.2727V25.9091H83.1819V27.2727H81.8183ZM83.1819 28.6364V27.2727H84.5456V28.6364H83.1819ZM84.5456 30V28.6364H85.9092V30H84.5456ZM81.8183 24.5455V23.1818H83.1819V24.5455H81.8183ZM83.1819 25.9091V24.5455H84.5456V25.9091H83.1819ZM84.5456 27.2727V25.9091H85.9092V27.2727H84.5456ZM85.9092 28.6364V27.2727H87.2729V28.6364H85.9092ZM87.2729 30V28.6364H88.6365V30H87.2729ZM81.8183 21.8182V20.4545H83.1819V21.8182H81.8183ZM83.1819 23.1818V21.8182H84.5456V23.1818H83.1819ZM84.5456 24.5455V23.1818H85.9092V24.5455H84.5456ZM85.9092 25.9091V24.5455H87.2729V25.9091H85.9092ZM87.2729 27.2727V25.9091H88.6365V27.2727H87.2729ZM88.6365 28.6364V27.2727H90.0001V28.6364H88.6365ZM90.0001 30V28.6364H91.3638V30H90.0001ZM81.8183 19.0909V17.7273H83.1819V19.0909H81.8183ZM83.1819 20.4545V19.0909H84.5456V20.4545H83.1819ZM84.5456 21.8182V20.4545H85.9092V21.8182H84.5456ZM85.9092 23.1818V21.8182H87.2729V23.1818H85.9092ZM87.2729 24.5455V23.1818H88.6365V24.5455H87.2729ZM88.6365 25.9091V24.5455H90.0001V25.9091H88.6365ZM90.0001 27.2727V25.9091H91.3638V27.2727H90.0001ZM91.3638 28.6364V27.2727H92.7274V28.6364H91.3638ZM92.7274 30V28.6364H94.091V30H92.7274ZM81.8183 16.3636V15H83.1819V16.3636H81.8183ZM83.1819 17.7273V16.3636H84.5456V17.7273H83.1819ZM84.5456 19.0909V17.7273H85.9092V19.0909H84.5456ZM85.9092 20.4545V19.0909H87.2729V20.4545H85.9092ZM87.2729 21.8182V20.4545H88.6365V21.8182H87.2729ZM88.6365 23.1818V21.8182H90.0001V23.1818H88.6365ZM90.0001 24.5455V23.1818H91.3638V24.5455H90.0001ZM91.3638 25.9091V24.5455H92.7274V25.9091H91.3638ZM92.7274 27.2727V25.9091H94.091V27.2727H92.7274ZM94.091 28.6364V27.2727H95.4547V28.6364H94.091ZM81.8183 13.6364V12.2727H83.1819V13.6364H81.8183ZM83.1819 15V13.6364H84.5456V15H83.1819ZM84.5456 16.3636V15H85.9092V16.3636H84.5456ZM85.9092 17.7273V16.3636H87.2729V17.7273H85.9092ZM87.2729 19.0909V17.7273H88.6365V19.0909H87.2729ZM88.6365 20.4545V19.0909H90.0001V20.4545H88.6365ZM90.0001 21.8182V20.4545H91.3638V21.8182H90.0001ZM91.3638 23.1818V21.8182H92.7274V23.1818H91.3638ZM92.7274 24.5455V23.1818H94.091V24.5455H92.7274ZM94.091 25.9091V24.5455H95.4547V25.9091H94.091ZM81.8183 10.9091V9.54546H83.1819V10.9091H81.8183ZM83.1819 12.2727V10.9091H84.5456V12.2727H83.1819ZM84.5456 13.6364V12.2727H85.9092V13.6364H84.5456ZM85.9092 15V13.6364H87.2729V15H85.9092ZM87.2729 16.3636V15H88.6365V16.3636H87.2729ZM88.6365 17.7273V16.3636H90.0001V17.7273H88.6365ZM90.0001 19.0909V17.7273H91.3638V19.0909H90.0001ZM91.3638 20.4545V19.0909H92.7274V20.4545H91.3638ZM92.7274 21.8182V20.4545H94.091V21.8182H92.7274ZM94.091 23.1818V21.8182H95.4547V23.1818H94.091ZM81.8183 8.18182V6.81818H83.1819V8.18182H81.8183ZM83.1819 9.54546V8.18182H84.5456V9.54546H83.1819ZM84.5456 10.9091V9.54546H85.9092V10.9091H84.5456ZM85.9092 12.2727V10.9091H87.2729V12.2727H85.9092ZM87.2729 13.6364V12.2727H88.6365V13.6364H87.2729ZM88.6365 15V13.6364H90.0001V15H88.6365ZM90.0001 16.3636V15H91.3638V16.3636H90.0001ZM91.3638 17.7273V16.3636H92.7274V17.7273H91.3638ZM92.7274 19.0909V17.7273H94.091V19.0909H92.7274ZM94.091 20.4545V19.0909H95.4547V20.4545H94.091ZM81.8183 5.45455V4.09091H83.1819V5.45455H81.8183ZM83.1819 6.81818V5.45455H84.5456V6.81818H83.1819ZM84.5456 8.18182V6.81818H85.9092V8.18182H84.5456ZM85.9092 9.54546V8.18182H87.2729V9.54546H85.9092ZM87.2729 10.9091V9.54546H88.6365V10.9091H87.2729ZM88.6365 12.2727V10.9091H90.0001V12.2727H88.6365ZM90.0001 13.6364V12.2727H91.3638V13.6364H90.0001ZM91.3638 15V13.6364H92.7274V15H91.3638ZM92.7274 16.3636V15H94.091V16.3636H92.7274ZM94.091 17.7273V16.3636H95.4547V17.7273H94.091ZM81.8183 2.72727V1.36364H83.1819V2.72727H81.8183ZM83.1819 4.09091V2.72727H84.5456V4.09091H83.1819ZM84.5456 5.45455V4.09091H85.9092V5.45455H84.5456ZM85.9092 6.81818V5.45455H87.2729V6.81818H85.9092ZM87.2729 8.18182V6.81818H88.6365V8.18182H87.2729ZM88.6365 9.54546V8.18182H90.0001V9.54546H88.6365ZM90.0001 10.9091V9.54546H91.3638V10.9091H90.0001ZM91.3638 12.2727V10.9091H92.7274V12.2727H91.3638ZM92.7274 13.6364V12.2727H94.091V13.6364H92.7274ZM94.091 15V13.6364H95.4547V15H94.091ZM83.1819 1.36364V0H84.5456V1.36364H83.1819ZM84.5456 2.72727V1.36364H85.9092V2.72727H84.5456ZM85.9092 4.09091V2.72727H87.2729V4.09091H85.9092ZM87.2729 5.45455V4.09091H88.6365V5.45455H87.2729ZM88.6365 6.81818V5.45455H90.0001V6.81818H88.6365ZM90.0001 8.18182V6.81818H91.3638V8.18182H90.0001ZM91.3638 9.54546V8.18182H92.7274V9.54546H91.3638ZM92.7274 10.9091V9.54546H94.091V10.9091H92.7274ZM94.091 12.2727V10.9091H95.4547V12.2727H94.091ZM85.9092 1.36364V0H87.2729V1.36364H85.9092ZM87.2729 2.72727V1.36364H88.6365V2.72727H87.2729ZM88.6365 4.09091V2.72727H90.0001V4.09091H88.6365ZM90.0001 5.45455V4.09091H91.3638V5.45455H90.0001ZM91.3638 6.81818V5.45455H92.7274V6.81818H91.3638ZM92.7274 8.18182V6.81818H94.091V8.18182H92.7274ZM94.091 9.54546V8.18182H95.4547V9.54546H94.091ZM88.6365 1.36364V0H90.0001V1.36364H88.6365ZM90.0001 2.72727V1.36364H91.3638V2.72727H90.0001ZM91.3638 4.09091V2.72727H92.7274V4.09091H91.3638ZM92.7274 5.45455V4.09091H94.091V5.45455H92.7274ZM94.091 6.81818V5.45455H95.4547V6.81818H94.091ZM91.3638 1.36364V0H92.7274V1.36364H91.3638ZM92.7274 2.72727V1.36364H94.091V2.72727H92.7274ZM94.091 4.09091V2.72727H95.4547V4.09091H94.091Z" fill="var(--fill-0, white)" fill-opacity="0.11"/>
<path id="Vector_8" d="M107.727 1.36364V0H109.091V1.36364H107.727ZM95.4547 30V28.6364H96.8183V30H95.4547ZM95.4547 27.2727V25.9091H96.8183V27.2727H95.4547ZM96.8183 28.6364V27.2727H98.1819V28.6364H96.8183ZM98.1819 30V28.6364H99.5456V30H98.1819ZM95.4547 24.5455V23.1818H96.8183V24.5455H95.4547ZM96.8183 25.9091V24.5455H98.1819V25.9091H96.8183ZM98.1819 27.2727V25.9091H99.5456V27.2727H98.1819ZM99.5456 28.6364V27.2727H100.909V28.6364H99.5456ZM100.909 30V28.6364H102.273V30H100.909ZM95.4547 21.8182V20.4545H96.8183V21.8182H95.4547ZM96.8183 23.1818V21.8182H98.1819V23.1818H96.8183ZM98.1819 24.5455V23.1818H99.5456V24.5455H98.1819ZM99.5456 25.9091V24.5455H100.909V25.9091H99.5456ZM100.909 27.2727V25.9091H102.273V27.2727H100.909ZM102.273 28.6364V27.2727H103.636V28.6364H102.273ZM103.636 30V28.6364H105V30H103.636ZM95.4547 19.0909V17.7273H96.8183V19.0909H95.4547ZM96.8183 20.4545V19.0909H98.1819V20.4545H96.8183ZM98.1819 21.8182V20.4545H99.5456V21.8182H98.1819ZM99.5456 23.1818V21.8182H100.909V23.1818H99.5456ZM100.909 24.5455V23.1818H102.273V24.5455H100.909ZM102.273 25.9091V24.5455H103.636V25.9091H102.273ZM103.636 27.2727V25.9091H105V27.2727H103.636ZM105 28.6364V27.2727H106.364V28.6364H105ZM106.364 30V28.6364H107.727V30H106.364ZM95.4547 16.3636V15H96.8183V16.3636H95.4547ZM96.8183 17.7273V16.3636H98.1819V17.7273H96.8183ZM98.1819 19.0909V17.7273H99.5456V19.0909H98.1819ZM99.5456 20.4545V19.0909H100.909V20.4545H99.5456ZM100.909 21.8182V20.4545H102.273V21.8182H100.909ZM102.273 23.1818V21.8182H103.636V23.1818H102.273ZM103.636 24.5455V23.1818H105V24.5455H103.636ZM105 25.9091V24.5455H106.364V25.9091H105ZM106.364 27.2727V25.9091H107.727V27.2727H106.364ZM107.727 28.6364V27.2727H109.091V28.6364H107.727ZM95.4547 13.6364V12.2727H96.8183V13.6364H95.4547ZM96.8183 15V13.6364H98.1819V15H96.8183ZM98.1819 16.3636V15H99.5456V16.3636H98.1819ZM99.5456 17.7273V16.3636H100.909V17.7273H99.5456ZM100.909 19.0909V17.7273H102.273V19.0909H100.909ZM102.273 20.4545V19.0909H103.636V20.4545H102.273ZM103.636 21.8182V20.4545H105V21.8182H103.636ZM105 23.1818V21.8182H106.364V23.1818H105ZM106.364 24.5455V23.1818H107.727V24.5455H106.364ZM107.727 25.9091V24.5455H109.091V25.9091H107.727ZM95.4547 10.9091V9.54546H96.8183V10.9091H95.4547ZM96.8183 12.2727V10.9091H98.1819V12.2727H96.8183ZM98.1819 13.6364V12.2727H99.5456V13.6364H98.1819ZM99.5456 15V13.6364H100.909V15H99.5456ZM100.909 16.3636V15H102.273V16.3636H100.909ZM102.273 17.7273V16.3636H103.636V17.7273H102.273ZM103.636 19.0909V17.7273H105V19.0909H103.636ZM105 20.4545V19.0909H106.364V20.4545H105ZM106.364 21.8182V20.4545H107.727V21.8182H106.364ZM107.727 23.1818V21.8182H109.091V23.1818H107.727ZM95.4547 8.18182V6.81818H96.8183V8.18182H95.4547ZM96.8183 9.54546V8.18182H98.1819V9.54546H96.8183ZM98.1819 10.9091V9.54546H99.5456V10.9091H98.1819ZM99.5456 12.2727V10.9091H100.909V12.2727H99.5456ZM100.909 13.6364V12.2727H102.273V13.6364H100.909ZM102.273 15V13.6364H103.636V15H102.273ZM103.636 16.3636V15H105V16.3636H103.636ZM105 17.7273V16.3636H106.364V17.7273H105ZM106.364 19.0909V17.7273H107.727V19.0909H106.364ZM107.727 20.4545V19.0909H109.091V20.4545H107.727ZM95.4547 5.45455V4.09091H96.8183V5.45455H95.4547ZM96.8183 6.81818V5.45455H98.1819V6.81818H96.8183ZM98.1819 8.18182V6.81818H99.5456V8.18182H98.1819ZM99.5456 9.54546V8.18182H100.909V9.54546H99.5456ZM100.909 10.9091V9.54546H102.273V10.9091H100.909ZM102.273 12.2727V10.9091H103.636V12.2727H102.273ZM103.636 13.6364V12.2727H105V13.6364H103.636ZM105 15V13.6364H106.364V15H105ZM106.364 16.3636V15H107.727V16.3636H106.364ZM107.727 17.7273V16.3636H109.091V17.7273H107.727ZM95.4547 2.72727V1.36364H96.8183V2.72727H95.4547ZM96.8183 4.09091V2.72727H98.1819V4.09091H96.8183ZM98.1819 5.45455V4.09091H99.5456V5.45455H98.1819ZM99.5456 6.81818V5.45455H100.909V6.81818H99.5456ZM100.909 8.18182V6.81818H102.273V8.18182H100.909ZM102.273 9.54546V8.18182H103.636V9.54546H102.273ZM103.636 10.9091V9.54546H105V10.9091H103.636ZM105 12.2727V10.9091H106.364V12.2727H105ZM106.364 13.6364V12.2727H107.727V13.6364H106.364ZM107.727 15V13.6364H109.091V15H107.727ZM96.8183 1.36364V0H98.1819V1.36364H96.8183ZM98.1819 2.72727V1.36364H99.5456V2.72727H98.1819ZM99.5456 4.09091V2.72727H100.909V4.09091H99.5456ZM100.909 5.45455V4.09091H102.273V5.45455H100.909ZM102.273 6.81818V5.45455H103.636V6.81818H102.273ZM103.636 8.18182V6.81818H105V8.18182H103.636ZM105 9.54546V8.18182H106.364V9.54546H105ZM106.364 10.9091V9.54546H107.727V10.9091H106.364ZM107.727 12.2727V10.9091H109.091V12.2727H107.727ZM99.5456 1.36364V0H100.909V1.36364H99.5456ZM100.909 2.72727V1.36364H102.273V2.72727H100.909ZM102.273 4.09091V2.72727H103.636V4.09091H102.273ZM103.636 5.45455V4.09091H105V5.45455H103.636ZM105 6.81818V5.45455H106.364V6.81818H105ZM106.364 8.18182V6.81818H107.727V8.18182H106.364ZM107.727 9.54546V8.18182H109.091V9.54546H107.727ZM102.273 1.36364V0H103.636V1.36364H102.273ZM103.636 2.72727V1.36364H105V2.72727H103.636ZM105 4.09091V2.72727H106.364V4.09091H105ZM106.364 5.45455V4.09091H107.727V5.45455H106.364ZM107.727 6.81818V5.45455H109.091V6.81818H107.727ZM105 1.36364V0H106.364V1.36364H105ZM106.364 2.72727V1.36364H107.727V2.72727H106.364ZM107.727 4.09091V2.72727H109.091V4.09091H107.727Z" fill="var(--fill-0, white)" fill-opacity="0.11"/>
<path id="Vector_9" d="M121.364 1.36364V0H122.727V1.36364H121.364ZM109.091 30V28.6364H110.455V30H109.091ZM109.091 27.2727V25.9091H110.455V27.2727H109.091ZM110.455 28.6364V27.2727H111.818V28.6364H110.455ZM111.818 30V28.6364H113.182V30H111.818ZM109.091 24.5455V23.1818H110.455V24.5455H109.091ZM110.455 25.9091V24.5455H111.818V25.9091H110.455ZM111.818 27.2727V25.9091H113.182V27.2727H111.818ZM113.182 28.6364V27.2727H114.546V28.6364H113.182ZM114.546 30V28.6364H115.909V30H114.546ZM109.091 21.8182V20.4545H110.455V21.8182H109.091ZM110.455 23.1818V21.8182H111.818V23.1818H110.455ZM111.818 24.5455V23.1818H113.182V24.5455H111.818ZM113.182 25.9091V24.5455H114.546V25.9091H113.182ZM114.546 27.2727V25.9091H115.909V27.2727H114.546ZM115.909 28.6364V27.2727H117.273V28.6364H115.909ZM117.273 30V28.6364H118.636V30H117.273ZM109.091 19.0909V17.7273H110.455V19.0909H109.091ZM110.455 20.4545V19.0909H111.818V20.4545H110.455ZM111.818 21.8182V20.4545H113.182V21.8182H111.818ZM113.182 23.1818V21.8182H114.546V23.1818H113.182ZM114.546 24.5455V23.1818H115.909V24.5455H114.546ZM115.909 25.9091V24.5455H117.273V25.9091H115.909ZM117.273 27.2727V25.9091H118.636V27.2727H117.273ZM118.636 28.6364V27.2727H120V28.6364H118.636ZM120 30V28.6364H121.364V30H120ZM109.091 16.3636V15H110.455V16.3636H109.091ZM110.455 17.7273V16.3636H111.818V17.7273H110.455ZM111.818 19.0909V17.7273H113.182V19.0909H111.818ZM113.182 20.4545V19.0909H114.546V20.4545H113.182ZM114.546 21.8182V20.4545H115.909V21.8182H114.546ZM115.909 23.1818V21.8182H117.273V23.1818H115.909ZM117.273 24.5455V23.1818H118.636V24.5455H117.273ZM118.636 25.9091V24.5455H120V25.9091H118.636ZM120 27.2727V25.9091H121.364V27.2727H120ZM121.364 28.6364V27.2727H122.727V28.6364H121.364ZM109.091 13.6364V12.2727H110.455V13.6364H109.091ZM110.455 15V13.6364H111.818V15H110.455ZM111.818 16.3636V15H113.182V16.3636H111.818ZM113.182 17.7273V16.3636H114.546V17.7273H113.182ZM114.546 19.0909V17.7273H115.909V19.0909H114.546ZM115.909 20.4545V19.0909H117.273V20.4545H115.909ZM117.273 21.8182V20.4545H118.636V21.8182H117.273ZM118.636 23.1818V21.8182H120V23.1818H118.636ZM120 24.5455V23.1818H121.364V24.5455H120ZM121.364 25.9091V24.5455H122.727V25.9091H121.364ZM109.091 10.9091V9.54546H110.455V10.9091H109.091ZM110.455 12.2727V10.9091H111.818V12.2727H110.455ZM111.818 13.6364V12.2727H113.182V13.6364H111.818ZM113.182 15V13.6364H114.546V15H113.182ZM114.546 16.3636V15H115.909V16.3636H114.546ZM115.909 17.7273V16.3636H117.273V17.7273H115.909ZM117.273 19.0909V17.7273H118.636V19.0909H117.273ZM118.636 20.4545V19.0909H120V20.4545H118.636ZM120 21.8182V20.4545H121.364V21.8182H120ZM121.364 23.1818V21.8182H122.727V23.1818H121.364ZM109.091 8.18182V6.81818H110.455V8.18182H109.091ZM110.455 9.54546V8.18182H111.818V9.54546H110.455ZM111.818 10.9091V9.54546H113.182V10.9091H111.818ZM113.182 12.2727V10.9091H114.546V12.2727H113.182ZM114.546 13.6364V12.2727H115.909V13.6364H114.546ZM115.909 15V13.6364H117.273V15H115.909ZM117.273 16.3636V15H118.636V16.3636H117.273ZM118.636 17.7273V16.3636H120V17.7273H118.636ZM120 19.0909V17.7273H121.364V19.0909H120ZM121.364 20.4545V19.0909H122.727V20.4545H121.364ZM109.091 5.45455V4.09091H110.455V5.45455H109.091ZM110.455 6.81818V5.45455H111.818V6.81818H110.455ZM111.818 8.18182V6.81818H113.182V8.18182H111.818ZM113.182 9.54546V8.18182H114.546V9.54546H113.182ZM114.546 10.9091V9.54546H115.909V10.9091H114.546ZM115.909 12.2727V10.9091H117.273V12.2727H115.909ZM117.273 13.6364V12.2727H118.636V13.6364H117.273ZM118.636 15V13.6364H120V15H118.636ZM120 16.3636V15H121.364V16.3636H120ZM121.364 17.7273V16.3636H122.727V17.7273H121.364ZM109.091 2.72727V1.36364H110.455V2.72727H109.091ZM110.455 4.09091V2.72727H111.818V4.09091H110.455ZM111.818 5.45455V4.09091H113.182V5.45455H111.818ZM113.182 6.81818V5.45455H114.546V6.81818H113.182ZM114.546 8.18182V6.81818H115.909V8.18182H114.546ZM115.909 9.54546V8.18182H117.273V9.54546H115.909ZM117.273 10.9091V9.54546H118.636V10.9091H117.273ZM118.636 12.2727V10.9091H120V12.2727H118.636ZM120 13.6364V12.2727H121.364V13.6364H120ZM121.364 15V13.6364H122.727V15H121.364ZM110.455 1.36364V0H111.818V1.36364H110.455ZM111.818 2.72727V1.36364H113.182V2.72727H111.818ZM113.182 4.09091V2.72727H114.546V4.09091H113.182ZM114.546 5.45455V4.09091H115.909V5.45455H114.546ZM115.909 6.81818V5.45455H117.273V6.81818H115.909ZM117.273 8.18182V6.81818H118.636V8.18182H117.273ZM118.636 9.54546V8.18182H120V9.54546H118.636ZM120 10.9091V9.54546H121.364V10.9091H120ZM121.364 12.2727V10.9091H122.727V12.2727H121.364ZM113.182 1.36364V0H114.546V1.36364H113.182ZM114.546 2.72727V1.36364H115.909V2.72727H114.546ZM115.909 4.09091V2.72727H117.273V4.09091H115.909ZM117.273 5.45455V4.09091H118.636V5.45455H117.273ZM118.636 6.81818V5.45455H120V6.81818H118.636ZM120 8.18182V6.81818H121.364V8.18182H120ZM121.364 9.54546V8.18182H122.727V9.54546H121.364ZM115.909 1.36364V0H117.273V1.36364H115.909ZM117.273 2.72727V1.36364H118.636V2.72727H117.273ZM118.636 4.09091V2.72727H120V4.09091H118.636ZM120 5.45455V4.09091H121.364V5.45455H120ZM121.364 6.81818V5.45455H122.727V6.81818H121.364ZM118.636 1.36364V0H120V1.36364H118.636ZM120 2.72727V1.36364H121.364V2.72727H120ZM121.364 4.09091V2.72727H122.727V4.09091H121.364Z" fill="var(--fill-0, white)" fill-opacity="0.11"/>
<path id="Vector_10" d="M135 1.36364V0H136.364V1.36364H135ZM122.727 30V28.6364H124.091V30H122.727ZM122.727 27.2727V25.9091H124.091V27.2727H122.727ZM124.091 28.6364V27.2727H125.455V28.6364H124.091ZM125.455 30V28.6364H126.818V30H125.455ZM122.727 24.5455V23.1818H124.091V24.5455H122.727ZM124.091 25.9091V24.5455H125.455V25.9091H124.091ZM125.455 27.2727V25.9091H126.818V27.2727H125.455ZM126.818 28.6364V27.2727H128.182V28.6364H126.818ZM128.182 30V28.6364H129.546V30H128.182ZM122.727 21.8182V20.4545H124.091V21.8182H122.727ZM124.091 23.1818V21.8182H125.455V23.1818H124.091ZM125.455 24.5455V23.1818H126.818V24.5455H125.455ZM126.818 25.9091V24.5455H128.182V25.9091H126.818ZM128.182 27.2727V25.9091H129.546V27.2727H128.182ZM129.546 28.6364V27.2727H130.909V28.6364H129.546ZM130.909 30V28.6364H132.273V30H130.909ZM122.727 19.0909V17.7273H124.091V19.0909H122.727ZM124.091 20.4545V19.0909H125.455V20.4545H124.091ZM125.455 21.8182V20.4545H126.818V21.8182H125.455ZM126.818 23.1818V21.8182H128.182V23.1818H126.818ZM128.182 24.5455V23.1818H129.546V24.5455H128.182ZM129.546 25.9091V24.5455H130.909V25.9091H129.546ZM130.909 27.2727V25.9091H132.273V27.2727H130.909ZM132.273 28.6364V27.2727H133.636V28.6364H132.273ZM133.636 30V28.6364H135V30H133.636ZM122.727 16.3636V15H124.091V16.3636H122.727ZM124.091 17.7273V16.3636H125.455V17.7273H124.091ZM125.455 19.0909V17.7273H126.818V19.0909H125.455ZM126.818 20.4545V19.0909H128.182V20.4545H126.818ZM128.182 21.8182V20.4545H129.546V21.8182H128.182ZM129.546 23.1818V21.8182H130.909V23.1818H129.546ZM130.909 24.5455V23.1818H132.273V24.5455H130.909ZM132.273 25.9091V24.5455H133.636V25.9091H132.273ZM133.636 27.2727V25.9091H135V27.2727H133.636ZM135 28.6364V27.2727H136.364V28.6364H135ZM122.727 13.6364V12.2727H124.091V13.6364H122.727ZM124.091 15V13.6364H125.455V15H124.091ZM125.455 16.3636V15H126.818V16.3636H125.455ZM126.818 17.7273V16.3636H128.182V17.7273H126.818ZM128.182 19.0909V17.7273H129.546V19.0909H128.182ZM129.546 20.4545V19.0909H130.909V20.4545H129.546ZM130.909 21.8182V20.4545H132.273V21.8182H130.909ZM132.273 23.1818V21.8182H133.636V23.1818H132.273ZM133.636 24.5455V23.1818H135V24.5455H133.636ZM135 25.9091V24.5455H136.364V25.9091H135ZM122.727 10.9091V9.54546H124.091V10.9091H122.727ZM124.091 12.2727V10.9091H125.455V12.2727H124.091ZM125.455 13.6364V12.2727H126.818V13.6364H125.455ZM126.818 15V13.6364H128.182V15H126.818ZM128.182 16.3636V15H129.546V16.3636H128.182ZM129.546 17.7273V16.3636H130.909V17.7273H129.546ZM130.909 19.0909V17.7273H132.273V19.0909H130.909ZM132.273 20.4545V19.0909H133.636V20.4545H132.273ZM133.636 21.8182V20.4545H135V21.8182H133.636ZM135 23.1818V21.8182H136.364V23.1818H135ZM122.727 8.18182V6.81818H124.091V8.18182H122.727ZM124.091 9.54546V8.18182H125.455V9.54546H124.091ZM125.455 10.9091V9.54546H126.818V10.9091H125.455ZM126.818 12.2727V10.9091H128.182V12.2727H126.818ZM128.182 13.6364V12.2727H129.546V13.6364H128.182ZM129.546 15V13.6364H130.909V15H129.546ZM130.909 16.3636V15H132.273V16.3636H130.909ZM132.273 17.7273V16.3636H133.636V17.7273H132.273ZM133.636 19.0909V17.7273H135V19.0909H133.636ZM135 20.4545V19.0909H136.364V20.4545H135ZM122.727 5.45455V4.09091H124.091V5.45455H122.727ZM124.091 6.81818V5.45455H125.455V6.81818H124.091ZM125.455 8.18182V6.81818H126.818V8.18182H125.455ZM126.818 9.54546V8.18182H128.182V9.54546H126.818ZM128.182 10.9091V9.54546H129.546V10.9091H128.182ZM129.546 12.2727V10.9091H130.909V12.2727H129.546ZM130.909 13.6364V12.2727H132.273V13.6364H130.909ZM132.273 15V13.6364H133.636V15H132.273ZM133.636 16.3636V15H135V16.3636H133.636ZM135 17.7273V16.3636H136.364V17.7273H135ZM122.727 2.72727V1.36364H124.091V2.72727H122.727ZM124.091 4.09091V2.72727H125.455V4.09091H124.091ZM125.455 5.45455V4.09091H126.818V5.45455H125.455ZM126.818 6.81818V5.45455H128.182V6.81818H126.818ZM128.182 8.18182V6.81818H129.546V8.18182H128.182ZM129.546 9.54546V8.18182H130.909V9.54546H129.546ZM130.909 10.9091V9.54546H132.273V10.9091H130.909ZM132.273 12.2727V10.9091H133.636V12.2727H132.273ZM133.636 13.6364V12.2727H135V13.6364H133.636ZM135 15V13.6364H136.364V15H135ZM124.091 1.36364V0H125.455V1.36364H124.091ZM125.455 2.72727V1.36364H126.818V2.72727H125.455ZM126.818 4.09091V2.72727H128.182V4.09091H126.818ZM128.182 5.45455V4.09091H129.546V5.45455H128.182ZM129.546 6.81818V5.45455H130.909V6.81818H129.546ZM130.909 8.18182V6.81818H132.273V8.18182H130.909ZM132.273 9.54546V8.18182H133.636V9.54546H132.273ZM133.636 10.9091V9.54546H135V10.9091H133.636ZM135 12.2727V10.9091H136.364V12.2727H135ZM126.818 1.36364V0H128.182V1.36364H126.818ZM128.182 2.72727V1.36364H129.546V2.72727H128.182ZM129.546 4.09091V2.72727H130.909V4.09091H129.546ZM130.909 5.45455V4.09091H132.273V5.45455H130.909ZM132.273 6.81818V5.45455H133.636V6.81818H132.273ZM133.636 8.18182V6.81818H135V8.18182H133.636ZM135 9.54546V8.18182H136.364V9.54546H135ZM129.546 1.36364V0H130.909V1.36364H129.546ZM130.909 2.72727V1.36364H132.273V2.72727H130.909ZM132.273 4.09091V2.72727H133.636V4.09091H132.273ZM133.636 5.45455V4.09091H135V5.45455H133.636ZM135 6.81818V5.45455H136.364V6.81818H135ZM132.273 1.36364V0H133.636V1.36364H132.273ZM133.636 2.72727V1.36364H135V2.72727H133.636ZM135 4.09091V2.72727H136.364V4.09091H135Z" fill="var(--fill-0, white)" fill-opacity="0.11"/>
<path id="Vector_11" d="M148.636 1.36364V0H150V1.36364H148.636ZM136.364 30V28.6364H137.727V30H136.364ZM136.364 27.2727V25.9091H137.727V27.2727H136.364ZM137.727 28.6364V27.2727H139.091V28.6364H137.727ZM139.091 30V28.6364H140.455V30H139.091ZM136.364 24.5455V23.1818H137.727V24.5455H136.364ZM137.727 25.9091V24.5455H139.091V25.9091H137.727ZM139.091 27.2727V25.9091H140.455V27.2727H139.091ZM140.455 28.6364V27.2727H141.818V28.6364H140.455ZM141.818 30V28.6364H143.182V30H141.818ZM136.364 21.8182V20.4545H137.727V21.8182H136.364ZM137.727 23.1818V21.8182H139.091V23.1818H137.727ZM139.091 24.5455V23.1818H140.455V24.5455H139.091ZM140.455 25.9091V24.5455H141.818V25.9091H140.455ZM141.818 27.2727V25.9091H143.182V27.2727H141.818ZM143.182 28.6364V27.2727H144.546V28.6364H143.182ZM144.546 30V28.6364H145.909V30H144.546ZM136.364 19.0909V17.7273H137.727V19.0909H136.364ZM137.727 20.4545V19.0909H139.091V20.4545H137.727ZM139.091 21.8182V20.4545H140.455V21.8182H139.091ZM140.455 23.1818V21.8182H141.818V23.1818H140.455ZM141.818 24.5455V23.1818H143.182V24.5455H141.818ZM143.182 25.9091V24.5455H144.546V25.9091H143.182ZM144.546 27.2727V25.9091H145.909V27.2727H144.546ZM145.909 28.6364V27.2727H147.273V28.6364H145.909ZM147.273 30V28.6364H148.636V30H147.273ZM136.364 16.3636V15H137.727V16.3636H136.364ZM137.727 17.7273V16.3636H139.091V17.7273H137.727ZM139.091 19.0909V17.7273H140.455V19.0909H139.091ZM140.455 20.4545V19.0909H141.818V20.4545H140.455ZM141.818 21.8182V20.4545H143.182V21.8182H141.818ZM143.182 23.1818V21.8182H144.546V23.1818H143.182ZM144.546 24.5455V23.1818H145.909V24.5455H144.546ZM145.909 25.9091V24.5455H147.273V25.9091H145.909ZM147.273 27.2727V25.9091H148.636V27.2727H147.273ZM148.636 28.6364V27.2727H150V28.6364H148.636ZM136.364 13.6364V12.2727H137.727V13.6364H136.364ZM137.727 15V13.6364H139.091V15H137.727ZM139.091 16.3636V15H140.455V16.3636H139.091ZM140.455 17.7273V16.3636H141.818V17.7273H140.455ZM141.818 19.0909V17.7273H143.182V19.0909H141.818ZM143.182 20.4545V19.0909H144.546V20.4545H143.182ZM144.546 21.8182V20.4545H145.909V21.8182H144.546ZM145.909 23.1818V21.8182H147.273V23.1818H145.909ZM147.273 24.5455V23.1818H148.636V24.5455H147.273ZM148.636 25.9091V24.5455H150V25.9091H148.636ZM136.364 10.9091V9.54546H137.727V10.9091H136.364ZM137.727 12.2727V10.9091H139.091V12.2727H137.727ZM139.091 13.6364V12.2727H140.455V13.6364H139.091ZM140.455 15V13.6364H141.818V15H140.455ZM141.818 16.3636V15H143.182V16.3636H141.818ZM143.182 17.7273V16.3636H144.546V17.7273H143.182ZM144.546 19.0909V17.7273H145.909V19.0909H144.546ZM145.909 20.4545V19.0909H147.273V20.4545H145.909ZM147.273 21.8182V20.4545H148.636V21.8182H147.273ZM148.636 23.1818V21.8182H150V23.1818H148.636ZM136.364 8.18182V6.81818H137.727V8.18182H136.364ZM137.727 9.54546V8.18182H139.091V9.54546H137.727ZM139.091 10.9091V9.54546H140.455V10.9091H139.091ZM140.455 12.2727V10.9091H141.818V12.2727H140.455ZM141.818 13.6364V12.2727H143.182V13.6364H141.818ZM143.182 15V13.6364H144.546V15H143.182ZM144.546 16.3636V15H145.909V16.3636H144.546ZM145.909 17.7273V16.3636H147.273V17.7273H145.909ZM147.273 19.0909V17.7273H148.636V19.0909H147.273ZM148.636 20.4545V19.0909H150V20.4545H148.636ZM136.364 5.45455V4.09091H137.727V5.45455H136.364ZM137.727 6.81818V5.45455H139.091V6.81818H137.727ZM139.091 8.18182V6.81818H140.455V8.18182H139.091ZM140.455 9.54546V8.18182H141.818V9.54546H140.455ZM141.818 10.9091V9.54546H143.182V10.9091H141.818ZM143.182 12.2727V10.9091H144.546V12.2727H143.182ZM144.546 13.6364V12.2727H145.909V13.6364H144.546ZM145.909 15V13.6364H147.273V15H145.909ZM147.273 16.3636V15H148.636V16.3636H147.273ZM148.636 17.7273V16.3636H150V17.7273H148.636ZM136.364 2.72727V1.36364H137.727V2.72727H136.364ZM137.727 4.09091V2.72727H139.091V4.09091H137.727ZM139.091 5.45455V4.09091H140.455V5.45455H139.091ZM140.455 6.81818V5.45455H141.818V6.81818H140.455ZM141.818 8.18182V6.81818H143.182V8.18182H141.818ZM143.182 9.54546V8.18182H144.546V9.54546H143.182ZM144.546 10.9091V9.54546H145.909V10.9091H144.546ZM145.909 12.2727V10.9091H147.273V12.2727H145.909ZM147.273 13.6364V12.2727H148.636V13.6364H147.273ZM148.636 15V13.6364H150V15H148.636ZM137.727 1.36364V0H139.091V1.36364H137.727ZM139.091 2.72727V1.36364H140.455V2.72727H139.091ZM140.455 4.09091V2.72727H141.818V4.09091H140.455ZM141.818 5.45455V4.09091H143.182V5.45455H141.818ZM143.182 6.81818V5.45455H144.546V6.81818H143.182ZM144.546 8.18182V6.81818H145.909V8.18182H144.546ZM145.909 9.54546V8.18182H147.273V9.54546H145.909ZM147.273 10.9091V9.54546H148.636V10.9091H147.273ZM148.636 12.2727V10.9091H150V12.2727H148.636ZM140.455 1.36364V0H141.818V1.36364H140.455ZM141.818 2.72727V1.36364H143.182V2.72727H141.818ZM143.182 4.09091V2.72727H144.546V4.09091H143.182ZM144.546 5.45455V4.09091H145.909V5.45455H144.546ZM145.909 6.81818V5.45455H147.273V6.81818H145.909ZM147.273 8.18182V6.81818H148.636V8.18182H147.273ZM148.636 9.54546V8.18182H150V9.54546H148.636ZM143.182 1.36364V0H144.546V1.36364H143.182ZM144.546 2.72727V1.36364H145.909V2.72727H144.546ZM145.909 4.09091V2.72727H147.273V4.09091H145.909ZM147.273 5.45455V4.09091H148.636V5.45455H147.273ZM148.636 6.81818V5.45455H150V6.81818H148.636ZM145.909 1.36364V0H147.273V1.36364H145.909ZM147.273 2.72727V1.36364H148.636V2.72727H147.273ZM148.636 4.09091V2.72727H150V4.09091H148.636Z" fill="var(--fill-0, white)" fill-opacity="0.11"/>
<path id="Vector_12" d="M162.273 1.36364V0H163.636V1.36364H162.273ZM150 30V28.6364H151.364V30H150ZM150 27.2727V25.9091H151.364V27.2727H150ZM151.364 28.6364V27.2727H152.727V28.6364H151.364ZM152.727 30V28.6364H154.091V30H152.727ZM150 24.5455V23.1818H151.364V24.5455H150ZM151.364 25.9091V24.5455H152.727V25.9091H151.364ZM152.727 27.2727V25.9091H154.091V27.2727H152.727ZM154.091 28.6364V27.2727H155.455V28.6364H154.091ZM155.455 30V28.6364H156.818V30H155.455ZM150 21.8182V20.4545H151.364V21.8182H150ZM151.364 23.1818V21.8182H152.727V23.1818H151.364ZM152.727 24.5455V23.1818H154.091V24.5455H152.727ZM154.091 25.9091V24.5455H155.455V25.9091H154.091ZM155.455 27.2727V25.9091H156.818V27.2727H155.455ZM156.818 28.6364V27.2727H158.182V28.6364H156.818ZM158.182 30V28.6364H159.546V30H158.182ZM150 19.0909V17.7273H151.364V19.0909H150ZM151.364 20.4545V19.0909H152.727V20.4545H151.364ZM152.727 21.8182V20.4545H154.091V21.8182H152.727ZM154.091 23.1818V21.8182H155.455V23.1818H154.091ZM155.455 24.5455V23.1818H156.818V24.5455H155.455ZM156.818 25.9091V24.5455H158.182V25.9091H156.818ZM158.182 27.2727V25.9091H159.546V27.2727H158.182ZM159.546 28.6364V27.2727H160.909V28.6364H159.546ZM160.909 30V28.6364H162.273V30H160.909ZM150 16.3636V15H151.364V16.3636H150ZM151.364 17.7273V16.3636H152.727V17.7273H151.364ZM152.727 19.0909V17.7273H154.091V19.0909H152.727ZM154.091 20.4545V19.0909H155.455V20.4545H154.091ZM155.455 21.8182V20.4545H156.818V21.8182H155.455ZM156.818 23.1818V21.8182H158.182V23.1818H156.818ZM158.182 24.5455V23.1818H159.546V24.5455H158.182ZM159.546 25.9091V24.5455H160.909V25.9091H159.546ZM160.909 27.2727V25.9091H162.273V27.2727H160.909ZM162.273 28.6364V27.2727H163.636V28.6364H162.273ZM150 13.6364V12.2727H151.364V13.6364H150ZM151.364 15V13.6364H152.727V15H151.364ZM152.727 16.3636V15H154.091V16.3636H152.727ZM154.091 17.7273V16.3636H155.455V17.7273H154.091ZM155.455 19.0909V17.7273H156.818V19.0909H155.455ZM156.818 20.4545V19.0909H158.182V20.4545H156.818ZM158.182 21.8182V20.4545H159.546V21.8182H158.182ZM159.546 23.1818V21.8182H160.909V23.1818H159.546ZM160.909 24.5455V23.1818H162.273V24.5455H160.909ZM162.273 25.9091V24.5455H163.636V25.9091H162.273ZM150 10.9091V9.54546H151.364V10.9091H150ZM151.364 12.2727V10.9091H152.727V12.2727H151.364ZM152.727 13.6364V12.2727H154.091V13.6364H152.727ZM154.091 15V13.6364H155.455V15H154.091ZM155.455 16.3636V15H156.818V16.3636H155.455ZM156.818 17.7273V16.3636H158.182V17.7273H156.818ZM158.182 19.0909V17.7273H159.546V19.0909H158.182ZM159.546 20.4545V19.0909H160.909V20.4545H159.546ZM160.909 21.8182V20.4545H162.273V21.8182H160.909ZM162.273 23.1818V21.8182H163.636V23.1818H162.273ZM150 8.18182V6.81818H151.364V8.18182H150ZM151.364 9.54546V8.18182H152.727V9.54546H151.364ZM152.727 10.9091V9.54546H154.091V10.9091H152.727ZM154.091 12.2727V10.9091H155.455V12.2727H154.091ZM155.455 13.6364V12.2727H156.818V13.6364H155.455ZM156.818 15V13.6364H158.182V15H156.818ZM158.182 16.3636V15H159.546V16.3636H158.182ZM159.546 17.7273V16.3636H160.909V17.7273H159.546ZM160.909 19.0909V17.7273H162.273V19.0909H160.909ZM162.273 20.4545V19.0909H163.636V20.4545H162.273ZM150 5.45455V4.09091H151.364V5.45455H150ZM151.364 6.81818V5.45455H152.727V6.81818H151.364ZM152.727 8.18182V6.81818H154.091V8.18182H152.727ZM154.091 9.54546V8.18182H155.455V9.54546H154.091ZM155.455 10.9091V9.54546H156.818V10.9091H155.455ZM156.818 12.2727V10.9091H158.182V12.2727H156.818ZM158.182 13.6364V12.2727H159.546V13.6364H158.182ZM159.546 15V13.6364H160.909V15H159.546ZM160.909 16.3636V15H162.273V16.3636H160.909ZM162.273 17.7273V16.3636H163.636V17.7273H162.273ZM150 2.72727V1.36364H151.364V2.72727H150ZM151.364 4.09091V2.72727H152.727V4.09091H151.364ZM152.727 5.45455V4.09091H154.091V5.45455H152.727ZM154.091 6.81818V5.45455H155.455V6.81818H154.091ZM155.455 8.18182V6.81818H156.818V8.18182H155.455ZM156.818 9.54546V8.18182H158.182V9.54546H156.818ZM158.182 10.9091V9.54546H159.546V10.9091H158.182ZM159.546 12.2727V10.9091H160.909V12.2727H159.546ZM160.909 13.6364V12.2727H162.273V13.6364H160.909ZM162.273 15V13.6364H163.636V15H162.273ZM151.364 1.36364V0H152.727V1.36364H151.364ZM152.727 2.72727V1.36364H154.091V2.72727H152.727ZM154.091 4.09091V2.72727H155.455V4.09091H154.091ZM155.455 5.45455V4.09091H156.818V5.45455H155.455ZM156.818 6.81818V5.45455H158.182V6.81818H156.818ZM158.182 8.18182V6.81818H159.546V8.18182H158.182ZM159.546 9.54546V8.18182H160.909V9.54546H159.546ZM160.909 10.9091V9.54546H162.273V10.9091H160.909ZM162.273 12.2727V10.9091H163.636V12.2727H162.273ZM154.091 1.36364V0H155.455V1.36364H154.091ZM155.455 2.72727V1.36364H156.818V2.72727H155.455ZM156.818 4.09091V2.72727H158.182V4.09091H156.818ZM158.182 5.45455V4.09091H159.546V5.45455H158.182ZM159.546 6.81818V5.45455H160.909V6.81818H159.546ZM160.909 8.18182V6.81818H162.273V8.18182H160.909ZM162.273 9.54546V8.18182H163.636V9.54546H162.273ZM156.818 1.36364V0H158.182V1.36364H156.818ZM158.182 2.72727V1.36364H159.546V2.72727H158.182ZM159.546 4.09091V2.72727H160.909V4.09091H159.546ZM160.909 5.45455V4.09091H162.273V5.45455H160.909ZM162.273 6.81818V5.45455H163.636V6.81818H162.273ZM159.546 1.36364V0H160.909V1.36364H159.546ZM160.909 2.72727V1.36364H162.273V2.72727H160.909ZM162.273 4.09091V2.72727H163.636V4.09091H162.273Z" fill="var(--fill-0, white)" fill-opacity="0.11"/>
<path id="Vector_13" d="M175.909 1.36364V0H177.273V1.36364H175.909ZM163.636 30V28.6364H165V30H163.636ZM163.636 27.2727V25.9091H165V27.2727H163.636ZM165 28.6364V27.2727H166.364V28.6364H165ZM166.364 30V28.6364H167.727V30H166.364ZM163.636 24.5455V23.1818H165V24.5455H163.636ZM165 25.9091V24.5455H166.364V25.9091H165ZM166.364 27.2727V25.9091H167.727V27.2727H166.364ZM167.727 28.6364V27.2727H169.091V28.6364H167.727ZM169.091 30V28.6364H170.455V30H169.091ZM163.636 21.8182V20.4545H165V21.8182H163.636ZM165 23.1818V21.8182H166.364V23.1818H165ZM166.364 24.5455V23.1818H167.727V24.5455H166.364ZM167.727 25.9091V24.5455H169.091V25.9091H167.727ZM169.091 27.2727V25.9091H170.455V27.2727H169.091ZM170.455 28.6364V27.2727H171.818V28.6364H170.455ZM171.818 30V28.6364H173.182V30H171.818ZM163.636 19.0909V17.7273H165V19.0909H163.636ZM165 20.4545V19.0909H166.364V20.4545H165ZM166.364 21.8182V20.4545H167.727V21.8182H166.364ZM167.727 23.1818V21.8182H169.091V23.1818H167.727ZM169.091 24.5455V23.1818H170.455V24.5455H169.091ZM170.455 25.9091V24.5455H171.818V25.9091H170.455ZM171.818 27.2727V25.9091H173.182V27.2727H171.818ZM173.182 28.6364V27.2727H174.546V28.6364H173.182ZM174.546 30V28.6364H175.909V30H174.546ZM163.636 16.3636V15H165V16.3636H163.636ZM165 17.7273V16.3636H166.364V17.7273H165ZM166.364 19.0909V17.7273H167.727V19.0909H166.364ZM167.727 20.4545V19.0909H169.091V20.4545H167.727ZM169.091 21.8182V20.4545H170.455V21.8182H169.091ZM170.455 23.1818V21.8182H171.818V23.1818H170.455ZM171.818 24.5455V23.1818H173.182V24.5455H171.818ZM173.182 25.9091V24.5455H174.546V25.9091H173.182ZM174.546 27.2727V25.9091H175.909V27.2727H174.546ZM175.909 28.6364V27.2727H177.273V28.6364H175.909ZM163.636 13.6364V12.2727H165V13.6364H163.636ZM165 15V13.6364H166.364V15H165ZM166.364 16.3636V15H167.727V16.3636H166.364ZM167.727 17.7273V16.3636H169.091V17.7273H167.727ZM169.091 19.0909V17.7273H170.455V19.0909H169.091ZM170.455 20.4545V19.0909H171.818V20.4545H170.455ZM171.818 21.8182V20.4545H173.182V21.8182H171.818ZM173.182 23.1818V21.8182H174.546V23.1818H173.182ZM174.546 24.5455V23.1818H175.909V24.5455H174.546ZM175.909 25.9091V24.5455H177.273V25.9091H175.909ZM163.636 10.9091V9.54546H165V10.9091H163.636ZM165 12.2727V10.9091H166.364V12.2727H165ZM166.364 13.6364V12.2727H167.727V13.6364H166.364ZM167.727 15V13.6364H169.091V15H167.727ZM169.091 16.3636V15H170.455V16.3636H169.091ZM170.455 17.7273V16.3636H171.818V17.7273H170.455ZM171.818 19.0909V17.7273H173.182V19.0909H171.818ZM173.182 20.4545V19.0909H174.546V20.4545H173.182ZM174.546 21.8182V20.4545H175.909V21.8182H174.546ZM175.909 23.1818V21.8182H177.273V23.1818H175.909ZM163.636 8.18182V6.81818H165V8.18182H163.636ZM165 9.54546V8.18182H166.364V9.54546H165ZM166.364 10.9091V9.54546H167.727V10.9091H166.364ZM167.727 12.2727V10.9091H169.091V12.2727H167.727ZM169.091 13.6364V12.2727H170.455V13.6364H169.091ZM170.455 15V13.6364H171.818V15H170.455ZM171.818 16.3636V15H173.182V16.3636H171.818ZM173.182 17.7273V16.3636H174.546V17.7273H173.182ZM174.546 19.0909V17.7273H175.909V19.0909H174.546ZM175.909 20.4545V19.0909H177.273V20.4545H175.909ZM163.636 5.45455V4.09091H165V5.45455H163.636ZM165 6.81818V5.45455H166.364V6.81818H165ZM166.364 8.18182V6.81818H167.727V8.18182H166.364ZM167.727 9.54546V8.18182H169.091V9.54546H167.727ZM169.091 10.9091V9.54546H170.455V10.9091H169.091ZM170.455 12.2727V10.9091H171.818V12.2727H170.455ZM171.818 13.6364V12.2727H173.182V13.6364H171.818ZM173.182 15V13.6364H174.546V15H173.182ZM174.546 16.3636V15H175.909V16.3636H174.546ZM175.909 17.7273V16.3636H177.273V17.7273H175.909ZM163.636 2.72727V1.36364H165V2.72727H163.636ZM165 4.09091V2.72727H166.364V4.09091H165ZM166.364 5.45455V4.09091H167.727V5.45455H166.364ZM167.727 6.81818V5.45455H169.091V6.81818H167.727ZM169.091 8.18182V6.81818H170.455V8.18182H169.091ZM170.455 9.54546V8.18182H171.818V9.54546H170.455ZM171.818 10.9091V9.54546H173.182V10.9091H171.818ZM173.182 12.2727V10.9091H174.546V12.2727H173.182ZM174.546 13.6364V12.2727H175.909V13.6364H174.546ZM175.909 15V13.6364H177.273V15H175.909ZM165 1.36364V0H166.364V1.36364H165ZM166.364 2.72727V1.36364H167.727V2.72727H166.364ZM167.727 4.09091V2.72727H169.091V4.09091H167.727ZM169.091 5.45455V4.09091H170.455V5.45455H169.091ZM170.455 6.81818V5.45455H171.818V6.81818H170.455ZM171.818 8.18182V6.81818H173.182V8.18182H171.818ZM173.182 9.54546V8.18182H174.546V9.54546H173.182ZM174.546 10.9091V9.54546H175.909V10.9091H174.546ZM175.909 12.2727V10.9091H177.273V12.2727H175.909ZM167.727 1.36364V0H169.091V1.36364H167.727ZM169.091 2.72727V1.36364H170.455V2.72727H169.091ZM170.455 4.09091V2.72727H171.818V4.09091H170.455ZM171.818 5.45455V4.09091H173.182V5.45455H171.818ZM173.182 6.81818V5.45455H174.546V6.81818H173.182ZM174.546 8.18182V6.81818H175.909V8.18182H174.546ZM175.909 9.54546V8.18182H177.273V9.54546H175.909ZM170.455 1.36364V0H171.818V1.36364H170.455ZM171.818 2.72727V1.36364H173.182V2.72727H171.818ZM173.182 4.09091V2.72727H174.546V4.09091H173.182ZM174.546 5.45455V4.09091H175.909V5.45455H174.546ZM175.909 6.81818V5.45455H177.273V6.81818H175.909ZM173.182 1.36364V0H174.546V1.36364H173.182ZM174.546 2.72727V1.36364H175.909V2.72727H174.546ZM175.909 4.09091V2.72727H177.273V4.09091H175.909Z" fill="var(--fill-0, white)" fill-opacity="0.11"/>
<path id="Vector_14" d="M189.546 1.36364V0H190.909V1.36364H189.546ZM177.273 30V28.6364H178.636V30H177.273ZM177.273 27.2727V25.9091H178.636V27.2727H177.273ZM178.636 28.6364V27.2727H180V28.6364H178.636ZM180 30V28.6364H181.364V30H180ZM177.273 24.5455V23.1818H178.636V24.5455H177.273ZM178.636 25.9091V24.5455H180V25.9091H178.636ZM180 27.2727V25.9091H181.364V27.2727H180ZM181.364 28.6364V27.2727H182.727V28.6364H181.364ZM182.727 30V28.6364H184.091V30H182.727ZM177.273 21.8182V20.4545H178.636V21.8182H177.273ZM178.636 23.1818V21.8182H180V23.1818H178.636ZM180 24.5455V23.1818H181.364V24.5455H180ZM181.364 25.9091V24.5455H182.727V25.9091H181.364ZM182.727 27.2727V25.9091H184.091V27.2727H182.727ZM184.091 28.6364V27.2727H185.455V28.6364H184.091ZM185.455 30V28.6364H186.818V30H185.455ZM177.273 19.0909V17.7273H178.636V19.0909H177.273ZM178.636 20.4545V19.0909H180V20.4545H178.636ZM180 21.8182V20.4545H181.364V21.8182H180ZM181.364 23.1818V21.8182H182.727V23.1818H181.364ZM182.727 24.5455V23.1818H184.091V24.5455H182.727ZM184.091 25.9091V24.5455H185.455V25.9091H184.091ZM185.455 27.2727V25.9091H186.818V27.2727H185.455ZM186.818 28.6364V27.2727H188.182V28.6364H186.818ZM188.182 30V28.6364H189.546V30H188.182ZM177.273 16.3636V15H178.636V16.3636H177.273ZM178.636 17.7273V16.3636H180V17.7273H178.636ZM180 19.0909V17.7273H181.364V19.0909H180ZM181.364 20.4545V19.0909H182.727V20.4545H181.364ZM182.727 21.8182V20.4545H184.091V21.8182H182.727ZM184.091 23.1818V21.8182H185.455V23.1818H184.091ZM185.455 24.5455V23.1818H186.818V24.5455H185.455ZM186.818 25.9091V24.5455H188.182V25.9091H186.818ZM188.182 27.2727V25.9091H189.546V27.2727H188.182ZM189.546 28.6364V27.2727H190.909V28.6364H189.546ZM177.273 13.6364V12.2727H178.636V13.6364H177.273ZM178.636 15V13.6364H180V15H178.636ZM180 16.3636V15H181.364V16.3636H180ZM181.364 17.7273V16.3636H182.727V17.7273H181.364ZM182.727 19.0909V17.7273H184.091V19.0909H182.727ZM184.091 20.4545V19.0909H185.455V20.4545H184.091ZM185.455 21.8182V20.4545H186.818V21.8182H185.455ZM186.818 23.1818V21.8182H188.182V23.1818H186.818ZM188.182 24.5455V23.1818H189.546V24.5455H188.182ZM189.546 25.9091V24.5455H190.909V25.9091H189.546ZM177.273 10.9091V9.54546H178.636V10.9091H177.273ZM178.636 12.2727V10.9091H180V12.2727H178.636ZM180 13.6364V12.2727H181.364V13.6364H180ZM181.364 15V13.6364H182.727V15H181.364ZM182.727 16.3636V15H184.091V16.3636H182.727ZM184.091 17.7273V16.3636H185.455V17.7273H184.091ZM185.455 19.0909V17.7273H186.818V19.0909H185.455ZM186.818 20.4545V19.0909H188.182V20.4545H186.818ZM188.182 21.8182V20.4545H189.546V21.8182H188.182ZM189.546 23.1818V21.8182H190.909V23.1818H189.546ZM177.273 8.18182V6.81818H178.636V8.18182H177.273ZM178.636 9.54546V8.18182H180V9.54546H178.636ZM180 10.9091V9.54546H181.364V10.9091H180ZM181.364 12.2727V10.9091H182.727V12.2727H181.364ZM182.727 13.6364V12.2727H184.091V13.6364H182.727ZM184.091 15V13.6364H185.455V15H184.091ZM185.455 16.3636V15H186.818V16.3636H185.455ZM186.818 17.7273V16.3636H188.182V17.7273H186.818ZM188.182 19.0909V17.7273H189.546V19.0909H188.182ZM189.546 20.4545V19.0909H190.909V20.4545H189.546ZM177.273 5.45455V4.09091H178.636V5.45455H177.273ZM178.636 6.81818V5.45455H180V6.81818H178.636ZM180 8.18182V6.81818H181.364V8.18182H180ZM181.364 9.54546V8.18182H182.727V9.54546H181.364ZM182.727 10.9091V9.54546H184.091V10.9091H182.727ZM184.091 12.2727V10.9091H185.455V12.2727H184.091ZM185.455 13.6364V12.2727H186.818V13.6364H185.455ZM186.818 15V13.6364H188.182V15H186.818ZM188.182 16.3636V15H189.546V16.3636H188.182ZM189.546 17.7273V16.3636H190.909V17.7273H189.546ZM177.273 2.72727V1.36364H178.636V2.72727H177.273ZM178.636 4.09091V2.72727H180V4.09091H178.636ZM180 5.45455V4.09091H181.364V5.45455H180ZM181.364 6.81818V5.45455H182.727V6.81818H181.364ZM182.727 8.18182V6.81818H184.091V8.18182H182.727ZM184.091 9.54546V8.18182H185.455V9.54546H184.091ZM185.455 10.9091V9.54546H186.818V10.9091H185.455ZM186.818 12.2727V10.9091H188.182V12.2727H186.818ZM188.182 13.6364V12.2727H189.546V13.6364H188.182ZM189.546 15V13.6364H190.909V15H189.546ZM178.636 1.36364V0H180V1.36364H178.636ZM180 2.72727V1.36364H181.364V2.72727H180ZM181.364 4.09091V2.72727H182.727V4.09091H181.364ZM182.727 5.45455V4.09091H184.091V5.45455H182.727ZM184.091 6.81818V5.45455H185.455V6.81818H184.091ZM185.455 8.18182V6.81818H186.818V8.18182H185.455ZM186.818 9.54546V8.18182H188.182V9.54546H186.818ZM188.182 10.9091V9.54546H189.546V10.9091H188.182ZM189.546 12.2727V10.9091H190.909V12.2727H189.546ZM181.364 1.36364V0H182.727V1.36364H181.364ZM182.727 2.72727V1.36364H184.091V2.72727H182.727ZM184.091 4.09091V2.72727H185.455V4.09091H184.091ZM185.455 5.45455V4.09091H186.818V5.45455H185.455ZM186.818 6.81818V5.45455H188.182V6.81818H186.818ZM188.182 8.18182V6.81818H189.546V8.18182H188.182ZM189.546 9.54546V8.18182H190.909V9.54546H189.546ZM184.091 1.36364V0H185.455V1.36364H184.091ZM185.455 2.72727V1.36364H186.818V2.72727H185.455ZM186.818 4.09091V2.72727H188.182V4.09091H186.818ZM188.182 5.45455V4.09091H189.546V5.45455H188.182ZM189.546 6.81818V5.45455H190.909V6.81818H189.546ZM186.818 1.36364V0H188.182V1.36364H186.818ZM188.182 2.72727V1.36364H189.546V2.72727H188.182ZM189.546 4.09091V2.72727H190.909V4.09091H189.546Z" fill="var(--fill-0, white)" fill-opacity="0.11"/>
<path id="Vector_15" d="M203.182 1.36364V0H204.546V1.36364H203.182ZM190.909 30V28.6364H192.273V30H190.909ZM190.909 27.2727V25.9091H192.273V27.2727H190.909ZM192.273 28.6364V27.2727H193.636V28.6364H192.273ZM193.636 30V28.6364H195V30H193.636ZM190.909 24.5455V23.1818H192.273V24.5455H190.909ZM192.273 25.9091V24.5455H193.636V25.9091H192.273ZM193.636 27.2727V25.9091H195V27.2727H193.636ZM195 28.6364V27.2727H196.364V28.6364H195ZM196.364 30V28.6364H197.727V30H196.364ZM190.909 21.8182V20.4545H192.273V21.8182H190.909ZM192.273 23.1818V21.8182H193.636V23.1818H192.273ZM193.636 24.5455V23.1818H195V24.5455H193.636ZM195 25.9091V24.5455H196.364V25.9091H195ZM196.364 27.2727V25.9091H197.727V27.2727H196.364ZM197.727 28.6364V27.2727H199.091V28.6364H197.727ZM199.091 30V28.6364H200.455V30H199.091ZM190.909 19.0909V17.7273H192.273V19.0909H190.909ZM192.273 20.4545V19.0909H193.636V20.4545H192.273ZM193.636 21.8182V20.4545H195V21.8182H193.636ZM195 23.1818V21.8182H196.364V23.1818H195ZM196.364 24.5455V23.1818H197.727V24.5455H196.364ZM197.727 25.9091V24.5455H199.091V25.9091H197.727ZM199.091 27.2727V25.9091H200.455V27.2727H199.091ZM200.455 28.6364V27.2727H201.818V28.6364H200.455ZM201.818 30V28.6364H203.182V30H201.818ZM190.909 16.3636V15H192.273V16.3636H190.909ZM192.273 17.7273V16.3636H193.636V17.7273H192.273ZM193.636 19.0909V17.7273H195V19.0909H193.636ZM195 20.4545V19.0909H196.364V20.4545H195ZM196.364 21.8182V20.4545H197.727V21.8182H196.364ZM197.727 23.1818V21.8182H199.091V23.1818H197.727ZM199.091 24.5455V23.1818H200.455V24.5455H199.091ZM200.455 25.9091V24.5455H201.818V25.9091H200.455ZM201.818 27.2727V25.9091H203.182V27.2727H201.818ZM203.182 28.6364V27.2727H204.546V28.6364H203.182ZM190.909 13.6364V12.2727H192.273V13.6364H190.909ZM192.273 15V13.6364H193.636V15H192.273ZM193.636 16.3636V15H195V16.3636H193.636ZM195 17.7273V16.3636H196.364V17.7273H195ZM196.364 19.0909V17.7273H197.727V19.0909H196.364ZM197.727 20.4545V19.0909H199.091V20.4545H197.727ZM199.091 21.8182V20.4545H200.455V21.8182H199.091ZM200.455 23.1818V21.8182H201.818V23.1818H200.455ZM201.818 24.5455V23.1818H203.182V24.5455H201.818ZM203.182 25.9091V24.5455H204.546V25.9091H203.182ZM190.909 10.9091V9.54546H192.273V10.9091H190.909ZM192.273 12.2727V10.9091H193.636V12.2727H192.273ZM193.636 13.6364V12.2727H195V13.6364H193.636ZM195 15V13.6364H196.364V15H195ZM196.364 16.3636V15H197.727V16.3636H196.364ZM197.727 17.7273V16.3636H199.091V17.7273H197.727ZM199.091 19.0909V17.7273H200.455V19.0909H199.091ZM200.455 20.4545V19.0909H201.818V20.4545H200.455ZM201.818 21.8182V20.4545H203.182V21.8182H201.818ZM203.182 23.1818V21.8182H204.546V23.1818H203.182ZM190.909 8.18182V6.81818H192.273V8.18182H190.909ZM192.273 9.54546V8.18182H193.636V9.54546H192.273ZM193.636 10.9091V9.54546H195V10.9091H193.636ZM195 12.2727V10.9091H196.364V12.2727H195ZM196.364 13.6364V12.2727H197.727V13.6364H196.364ZM197.727 15V13.6364H199.091V15H197.727ZM199.091 16.3636V15H200.455V16.3636H199.091ZM200.455 17.7273V16.3636H201.818V17.7273H200.455ZM201.818 19.0909V17.7273H203.182V19.0909H201.818ZM203.182 20.4545V19.0909H204.546V20.4545H203.182ZM190.909 5.45455V4.09091H192.273V5.45455H190.909ZM192.273 6.81818V5.45455H193.636V6.81818H192.273ZM193.636 8.18182V6.81818H195V8.18182H193.636ZM195 9.54546V8.18182H196.364V9.54546H195ZM196.364 10.9091V9.54546H197.727V10.9091H196.364ZM197.727 12.2727V10.9091H199.091V12.2727H197.727ZM199.091 13.6364V12.2727H200.455V13.6364H199.091ZM200.455 15V13.6364H201.818V15H200.455ZM201.818 16.3636V15H203.182V16.3636H201.818ZM203.182 17.7273V16.3636H204.546V17.7273H203.182ZM190.909 2.72727V1.36364H192.273V2.72727H190.909ZM192.273 4.09091V2.72727H193.636V4.09091H192.273ZM193.636 5.45455V4.09091H195V5.45455H193.636ZM195 6.81818V5.45455H196.364V6.81818H195ZM196.364 8.18182V6.81818H197.727V8.18182H196.364ZM197.727 9.54546V8.18182H199.091V9.54546H197.727ZM199.091 10.9091V9.54546H200.455V10.9091H199.091ZM200.455 12.2727V10.9091H201.818V12.2727H200.455ZM201.818 13.6364V12.2727H203.182V13.6364H201.818ZM203.182 15V13.6364H204.546V15H203.182ZM192.273 1.36364V0H193.636V1.36364H192.273ZM193.636 2.72727V1.36364H195V2.72727H193.636ZM195 4.09091V2.72727H196.364V4.09091H195ZM196.364 5.45455V4.09091H197.727V5.45455H196.364ZM197.727 6.81818V5.45455H199.091V6.81818H197.727ZM199.091 8.18182V6.81818H200.455V8.18182H199.091ZM200.455 9.54546V8.18182H201.818V9.54546H200.455ZM201.818 10.9091V9.54546H203.182V10.9091H201.818ZM203.182 12.2727V10.9091H204.546V12.2727H203.182ZM195 1.36364V0H196.364V1.36364H195ZM196.364 2.72727V1.36364H197.727V2.72727H196.364ZM197.727 4.09091V2.72727H199.091V4.09091H197.727ZM199.091 5.45455V4.09091H200.455V5.45455H199.091ZM200.455 6.81818V5.45455H201.818V6.81818H200.455ZM201.818 8.18182V6.81818H203.182V8.18182H201.818ZM203.182 9.54546V8.18182H204.546V9.54546H203.182ZM197.727 1.36364V0H199.091V1.36364H197.727ZM199.091 2.72727V1.36364H200.455V2.72727H199.091ZM200.455 4.09091V2.72727H201.818V4.09091H200.455ZM201.818 5.45455V4.09091H203.182V5.45455H201.818ZM203.182 6.81818V5.45455H204.546V6.81818H203.182ZM200.455 1.36364V0H201.818V1.36364H200.455ZM201.818 2.72727V1.36364H203.182V2.72727H201.818ZM203.182 4.09091V2.72727H204.546V4.09091H203.182Z" fill="var(--fill-0, white)" fill-opacity="0.11"/>
</g>
</svg>
